<mxfile host="app.diagrams.net" agent="Mozilla/5.0 (Windows NT 10.0; Win64; x64) AppleWebKit/537.36 (KHTML, like Gecko) Chrome/128.0.0.0 Safari/537.36 Edg/128.0.0.0" version="24.7.14">
  <diagram id="C5RBs43oDa-KdzZeNtuy" name="Page-1">
    <mxGraphModel dx="2896" dy="1702" grid="1" gridSize="10" guides="1" tooltips="1" connect="1" arrows="1" fold="1" page="1" pageScale="1" pageWidth="827" pageHeight="1169" math="0" shadow="0">
      <root>
        <mxCell id="WIyWlLk6GJQsqaUBKTNV-0" />
        <mxCell id="WIyWlLk6GJQsqaUBKTNV-1" parent="WIyWlLk6GJQsqaUBKTNV-0" />
        <mxCell id="5_OHL3jlzMaZgzvaST_B-0" value="Core Framework" style="swimlane;whiteSpace=wrap;html=1;movable=1;resizable=1;rotatable=1;deletable=1;editable=1;locked=0;connectable=1;fillColor=#FF9933;strokeColor=#FF9933;shadow=0;" vertex="1" parent="WIyWlLk6GJQsqaUBKTNV-1">
          <mxGeometry x="-100" y="100" width="890" height="1010" as="geometry" />
        </mxCell>
        <mxCell id="5_OHL3jlzMaZgzvaST_B-3" value="Account" style="swimlane;fontStyle=0;childLayout=stackLayout;horizontal=1;startSize=30;horizontalStack=0;resizeParent=1;resizeParentMax=0;resizeLast=0;collapsible=1;marginBottom=0;whiteSpace=wrap;html=1;" vertex="1" parent="5_OHL3jlzMaZgzvaST_B-0">
          <mxGeometry x="20" y="50" width="140" height="68" as="geometry" />
        </mxCell>
        <mxCell id="5_OHL3jlzMaZgzvaST_B-4" value="+ accountNumber" style="text;strokeColor=none;fillColor=none;align=left;verticalAlign=middle;spacingLeft=4;spacingRight=4;overflow=hidden;points=[[0,0.5],[1,0.5]];portConstraint=eastwest;rotatable=0;whiteSpace=wrap;html=1;" vertex="1" parent="5_OHL3jlzMaZgzvaST_B-3">
          <mxGeometry y="30" width="140" height="30" as="geometry" />
        </mxCell>
        <mxCell id="5_OHL3jlzMaZgzvaST_B-35" value="" style="line;strokeWidth=1;fillColor=none;align=left;verticalAlign=middle;spacingTop=-1;spacingLeft=3;spacingRight=3;rotatable=0;labelPosition=right;points=[];portConstraint=eastwest;strokeColor=inherit;" vertex="1" parent="5_OHL3jlzMaZgzvaST_B-3">
          <mxGeometry y="60" width="140" height="8" as="geometry" />
        </mxCell>
        <mxCell id="5_OHL3jlzMaZgzvaST_B-7" value="Customer" style="swimlane;fontStyle=0;childLayout=stackLayout;horizontal=1;startSize=30;horizontalStack=0;resizeParent=1;resizeParentMax=0;resizeLast=0;collapsible=1;marginBottom=0;whiteSpace=wrap;html=1;" vertex="1" parent="5_OHL3jlzMaZgzvaST_B-0">
          <mxGeometry x="20" y="232" width="140" height="128" as="geometry" />
        </mxCell>
        <mxCell id="5_OHL3jlzMaZgzvaST_B-8" value="+customerName" style="text;strokeColor=none;fillColor=none;align=left;verticalAlign=middle;spacingLeft=4;spacingRight=4;overflow=hidden;points=[[0,0.5],[1,0.5]];portConstraint=eastwest;rotatable=0;whiteSpace=wrap;html=1;" vertex="1" parent="5_OHL3jlzMaZgzvaST_B-7">
          <mxGeometry y="30" width="140" height="30" as="geometry" />
        </mxCell>
        <mxCell id="5_OHL3jlzMaZgzvaST_B-10" value="+email" style="text;strokeColor=none;fillColor=none;align=left;verticalAlign=middle;spacingLeft=4;spacingRight=4;overflow=hidden;points=[[0,0.5],[1,0.5]];portConstraint=eastwest;rotatable=0;whiteSpace=wrap;html=1;" vertex="1" parent="5_OHL3jlzMaZgzvaST_B-7">
          <mxGeometry y="60" width="140" height="30" as="geometry" />
        </mxCell>
        <mxCell id="5_OHL3jlzMaZgzvaST_B-9" value="+creationDate" style="text;strokeColor=none;fillColor=none;align=left;verticalAlign=middle;spacingLeft=4;spacingRight=4;overflow=hidden;points=[[0,0.5],[1,0.5]];portConstraint=eastwest;rotatable=0;whiteSpace=wrap;html=1;" vertex="1" parent="5_OHL3jlzMaZgzvaST_B-7">
          <mxGeometry y="90" width="140" height="30" as="geometry" />
        </mxCell>
        <mxCell id="5_OHL3jlzMaZgzvaST_B-38" value="" style="line;strokeWidth=1;fillColor=none;align=left;verticalAlign=middle;spacingTop=-1;spacingLeft=3;spacingRight=3;rotatable=0;labelPosition=right;points=[];portConstraint=eastwest;strokeColor=inherit;" vertex="1" parent="5_OHL3jlzMaZgzvaST_B-7">
          <mxGeometry y="120" width="140" height="8" as="geometry" />
        </mxCell>
        <mxCell id="5_OHL3jlzMaZgzvaST_B-11" value="Address" style="swimlane;fontStyle=0;childLayout=stackLayout;horizontal=1;startSize=30;horizontalStack=0;resizeParent=1;resizeParentMax=0;resizeLast=0;collapsible=1;marginBottom=0;whiteSpace=wrap;html=1;" vertex="1" parent="5_OHL3jlzMaZgzvaST_B-0">
          <mxGeometry x="230" y="230" width="140" height="158" as="geometry" />
        </mxCell>
        <mxCell id="5_OHL3jlzMaZgzvaST_B-12" value="+street" style="text;strokeColor=none;fillColor=none;align=left;verticalAlign=middle;spacingLeft=4;spacingRight=4;overflow=hidden;points=[[0,0.5],[1,0.5]];portConstraint=eastwest;rotatable=0;whiteSpace=wrap;html=1;" vertex="1" parent="5_OHL3jlzMaZgzvaST_B-11">
          <mxGeometry y="30" width="140" height="30" as="geometry" />
        </mxCell>
        <mxCell id="5_OHL3jlzMaZgzvaST_B-13" value="+city" style="text;strokeColor=none;fillColor=none;align=left;verticalAlign=middle;spacingLeft=4;spacingRight=4;overflow=hidden;points=[[0,0.5],[1,0.5]];portConstraint=eastwest;rotatable=0;whiteSpace=wrap;html=1;" vertex="1" parent="5_OHL3jlzMaZgzvaST_B-11">
          <mxGeometry y="60" width="140" height="30" as="geometry" />
        </mxCell>
        <mxCell id="5_OHL3jlzMaZgzvaST_B-15" value="+zip" style="text;strokeColor=none;fillColor=none;align=left;verticalAlign=middle;spacingLeft=4;spacingRight=4;overflow=hidden;points=[[0,0.5],[1,0.5]];portConstraint=eastwest;rotatable=0;whiteSpace=wrap;html=1;" vertex="1" parent="5_OHL3jlzMaZgzvaST_B-11">
          <mxGeometry y="90" width="140" height="30" as="geometry" />
        </mxCell>
        <mxCell id="5_OHL3jlzMaZgzvaST_B-14" value="+state" style="text;strokeColor=none;fillColor=none;align=left;verticalAlign=middle;spacingLeft=4;spacingRight=4;overflow=hidden;points=[[0,0.5],[1,0.5]];portConstraint=eastwest;rotatable=0;whiteSpace=wrap;html=1;" vertex="1" parent="5_OHL3jlzMaZgzvaST_B-11">
          <mxGeometry y="120" width="140" height="30" as="geometry" />
        </mxCell>
        <mxCell id="5_OHL3jlzMaZgzvaST_B-39" value="" style="line;strokeWidth=1;fillColor=none;align=left;verticalAlign=middle;spacingTop=-1;spacingLeft=3;spacingRight=3;rotatable=0;labelPosition=right;points=[];portConstraint=eastwest;strokeColor=inherit;" vertex="1" parent="5_OHL3jlzMaZgzvaST_B-11">
          <mxGeometry y="150" width="140" height="8" as="geometry" />
        </mxCell>
        <mxCell id="5_OHL3jlzMaZgzvaST_B-16" value="AccountEntry" style="swimlane;fontStyle=0;childLayout=stackLayout;horizontal=1;startSize=30;horizontalStack=0;resizeParent=1;resizeParentMax=0;resizeLast=0;collapsible=1;marginBottom=0;whiteSpace=wrap;html=1;" vertex="1" parent="5_OHL3jlzMaZgzvaST_B-0">
          <mxGeometry x="230" y="40" width="140" height="158" as="geometry" />
        </mxCell>
        <mxCell id="5_OHL3jlzMaZgzvaST_B-17" value="+amount" style="text;strokeColor=none;fillColor=none;align=left;verticalAlign=middle;spacingLeft=4;spacingRight=4;overflow=hidden;points=[[0,0.5],[1,0.5]];portConstraint=eastwest;rotatable=0;whiteSpace=wrap;html=1;" vertex="1" parent="5_OHL3jlzMaZgzvaST_B-16">
          <mxGeometry y="30" width="140" height="30" as="geometry" />
        </mxCell>
        <mxCell id="5_OHL3jlzMaZgzvaST_B-18" value="+date" style="text;strokeColor=none;fillColor=none;align=left;verticalAlign=middle;spacingLeft=4;spacingRight=4;overflow=hidden;points=[[0,0.5],[1,0.5]];portConstraint=eastwest;rotatable=0;whiteSpace=wrap;html=1;" vertex="1" parent="5_OHL3jlzMaZgzvaST_B-16">
          <mxGeometry y="60" width="140" height="30" as="geometry" />
        </mxCell>
        <mxCell id="5_OHL3jlzMaZgzvaST_B-19" value="+description" style="text;strokeColor=none;fillColor=none;align=left;verticalAlign=middle;spacingLeft=4;spacingRight=4;overflow=hidden;points=[[0,0.5],[1,0.5]];portConstraint=eastwest;rotatable=0;whiteSpace=wrap;html=1;" vertex="1" parent="5_OHL3jlzMaZgzvaST_B-16">
          <mxGeometry y="90" width="140" height="30" as="geometry" />
        </mxCell>
        <mxCell id="5_OHL3jlzMaZgzvaST_B-20" value="+transactionType" style="text;strokeColor=none;fillColor=none;align=left;verticalAlign=middle;spacingLeft=4;spacingRight=4;overflow=hidden;points=[[0,0.5],[1,0.5]];portConstraint=eastwest;rotatable=0;whiteSpace=wrap;html=1;" vertex="1" parent="5_OHL3jlzMaZgzvaST_B-16">
          <mxGeometry y="120" width="140" height="30" as="geometry" />
        </mxCell>
        <mxCell id="5_OHL3jlzMaZgzvaST_B-36" value="" style="line;strokeWidth=1;fillColor=none;align=left;verticalAlign=middle;spacingTop=-1;spacingLeft=3;spacingRight=3;rotatable=0;labelPosition=right;points=[];portConstraint=eastwest;strokeColor=inherit;" vertex="1" parent="5_OHL3jlzMaZgzvaST_B-16">
          <mxGeometry y="150" width="140" height="8" as="geometry" />
        </mxCell>
        <mxCell id="5_OHL3jlzMaZgzvaST_B-21" value="AccountReport" style="swimlane;fontStyle=0;childLayout=stackLayout;horizontal=1;startSize=30;horizontalStack=0;resizeParent=1;resizeParentMax=0;resizeLast=0;collapsible=1;marginBottom=0;whiteSpace=wrap;html=1;" vertex="1" parent="5_OHL3jlzMaZgzvaST_B-0">
          <mxGeometry x="440" y="40" width="140" height="158" as="geometry" />
        </mxCell>
        <mxCell id="5_OHL3jlzMaZgzvaST_B-22" value="+customerName" style="text;strokeColor=none;fillColor=none;align=left;verticalAlign=middle;spacingLeft=4;spacingRight=4;overflow=hidden;points=[[0,0.5],[1,0.5]];portConstraint=eastwest;rotatable=0;whiteSpace=wrap;html=1;" vertex="1" parent="5_OHL3jlzMaZgzvaST_B-21">
          <mxGeometry y="30" width="140" height="30" as="geometry" />
        </mxCell>
        <mxCell id="5_OHL3jlzMaZgzvaST_B-23" value="+customerEmail" style="text;strokeColor=none;fillColor=none;align=left;verticalAlign=middle;spacingLeft=4;spacingRight=4;overflow=hidden;points=[[0,0.5],[1,0.5]];portConstraint=eastwest;rotatable=0;whiteSpace=wrap;html=1;" vertex="1" parent="5_OHL3jlzMaZgzvaST_B-21">
          <mxGeometry y="60" width="140" height="30" as="geometry" />
        </mxCell>
        <mxCell id="5_OHL3jlzMaZgzvaST_B-24" value="+customerAddress" style="text;strokeColor=none;fillColor=none;align=left;verticalAlign=middle;spacingLeft=4;spacingRight=4;overflow=hidden;points=[[0,0.5],[1,0.5]];portConstraint=eastwest;rotatable=0;whiteSpace=wrap;html=1;" vertex="1" parent="5_OHL3jlzMaZgzvaST_B-21">
          <mxGeometry y="90" width="140" height="30" as="geometry" />
        </mxCell>
        <mxCell id="5_OHL3jlzMaZgzvaST_B-25" value="+accountNumber" style="text;strokeColor=none;fillColor=none;align=left;verticalAlign=middle;spacingLeft=4;spacingRight=4;overflow=hidden;points=[[0,0.5],[1,0.5]];portConstraint=eastwest;rotatable=0;whiteSpace=wrap;html=1;" vertex="1" parent="5_OHL3jlzMaZgzvaST_B-21">
          <mxGeometry y="120" width="140" height="30" as="geometry" />
        </mxCell>
        <mxCell id="5_OHL3jlzMaZgzvaST_B-37" value="" style="line;strokeWidth=1;fillColor=none;align=left;verticalAlign=middle;spacingTop=-1;spacingLeft=3;spacingRight=3;rotatable=0;labelPosition=right;points=[];portConstraint=eastwest;strokeColor=inherit;" vertex="1" parent="5_OHL3jlzMaZgzvaST_B-21">
          <mxGeometry y="150" width="140" height="8" as="geometry" />
        </mxCell>
        <mxCell id="5_OHL3jlzMaZgzvaST_B-26" value="&lt;div&gt;&amp;lt;&amp;lt;interface&amp;gt;&amp;gt;&lt;/div&gt;UiCommand" style="swimlane;fontStyle=0;childLayout=stackLayout;horizontal=1;startSize=30;horizontalStack=0;resizeParent=1;resizeParentMax=0;resizeLast=0;collapsible=1;marginBottom=0;whiteSpace=wrap;html=1;" vertex="1" parent="5_OHL3jlzMaZgzvaST_B-0">
          <mxGeometry x="690" y="40" width="140" height="68" as="geometry" />
        </mxCell>
        <mxCell id="5_OHL3jlzMaZgzvaST_B-40" value="" style="line;strokeWidth=1;fillColor=none;align=left;verticalAlign=middle;spacingTop=-1;spacingLeft=3;spacingRight=3;rotatable=0;labelPosition=right;points=[];portConstraint=eastwest;strokeColor=inherit;" vertex="1" parent="5_OHL3jlzMaZgzvaST_B-26">
          <mxGeometry y="30" width="140" height="8" as="geometry" />
        </mxCell>
        <mxCell id="5_OHL3jlzMaZgzvaST_B-41" value="+execute()" style="text;strokeColor=none;fillColor=none;align=left;verticalAlign=middle;spacingLeft=4;spacingRight=4;overflow=hidden;points=[[0,0.5],[1,0.5]];portConstraint=eastwest;rotatable=0;whiteSpace=wrap;html=1;" vertex="1" parent="5_OHL3jlzMaZgzvaST_B-26">
          <mxGeometry y="38" width="140" height="30" as="geometry" />
        </mxCell>
        <mxCell id="5_OHL3jlzMaZgzvaST_B-43" value="&lt;div&gt;&amp;lt;&amp;lt;interface&amp;gt;&amp;gt;&lt;/div&gt;&lt;div&gt;AccountFactory&lt;/div&gt;" style="swimlane;fontStyle=0;childLayout=stackLayout;horizontal=1;startSize=30;horizontalStack=0;resizeParent=1;resizeParentMax=0;resizeLast=0;collapsible=1;marginBottom=0;whiteSpace=wrap;html=1;" vertex="1" parent="5_OHL3jlzMaZgzvaST_B-0">
          <mxGeometry x="20" y="440" width="140" height="68" as="geometry" />
        </mxCell>
        <mxCell id="5_OHL3jlzMaZgzvaST_B-44" value="" style="line;strokeWidth=1;fillColor=none;align=left;verticalAlign=middle;spacingTop=-1;spacingLeft=3;spacingRight=3;rotatable=0;labelPosition=right;points=[];portConstraint=eastwest;strokeColor=inherit;" vertex="1" parent="5_OHL3jlzMaZgzvaST_B-43">
          <mxGeometry y="30" width="140" height="8" as="geometry" />
        </mxCell>
        <mxCell id="5_OHL3jlzMaZgzvaST_B-45" value="+createAccount()" style="text;strokeColor=none;fillColor=none;align=left;verticalAlign=middle;spacingLeft=4;spacingRight=4;overflow=hidden;points=[[0,0.5],[1,0.5]];portConstraint=eastwest;rotatable=0;whiteSpace=wrap;html=1;" vertex="1" parent="5_OHL3jlzMaZgzvaST_B-43">
          <mxGeometry y="38" width="140" height="30" as="geometry" />
        </mxCell>
        <mxCell id="5_OHL3jlzMaZgzvaST_B-46" value="&lt;div&gt;&amp;lt;&amp;lt;interface&amp;gt;&amp;gt;&lt;/div&gt;&lt;div&gt;AccountManagementService&lt;/div&gt;" style="swimlane;fontStyle=0;childLayout=stackLayout;horizontal=1;startSize=30;horizontalStack=0;resizeParent=1;resizeParentMax=0;resizeLast=0;collapsible=1;marginBottom=0;whiteSpace=wrap;html=1;" vertex="1" parent="5_OHL3jlzMaZgzvaST_B-0">
          <mxGeometry x="230" y="440" width="166" height="68" as="geometry" />
        </mxCell>
        <mxCell id="5_OHL3jlzMaZgzvaST_B-47" value="" style="line;strokeWidth=1;fillColor=none;align=left;verticalAlign=middle;spacingTop=-1;spacingLeft=3;spacingRight=3;rotatable=0;labelPosition=right;points=[];portConstraint=eastwest;strokeColor=inherit;" vertex="1" parent="5_OHL3jlzMaZgzvaST_B-46">
          <mxGeometry y="30" width="166" height="8" as="geometry" />
        </mxCell>
        <mxCell id="5_OHL3jlzMaZgzvaST_B-48" value="+createAccount()" style="text;strokeColor=none;fillColor=none;align=left;verticalAlign=middle;spacingLeft=4;spacingRight=4;overflow=hidden;points=[[0,0.5],[1,0.5]];portConstraint=eastwest;rotatable=0;whiteSpace=wrap;html=1;" vertex="1" parent="5_OHL3jlzMaZgzvaST_B-46">
          <mxGeometry y="38" width="166" height="30" as="geometry" />
        </mxCell>
        <mxCell id="5_OHL3jlzMaZgzvaST_B-49" value="&lt;div&gt;&lt;span style=&quot;background-color: initial;&quot;&gt;AccountManagementServiceImpl&lt;/span&gt;&lt;br&gt;&lt;/div&gt;" style="swimlane;fontStyle=0;childLayout=stackLayout;horizontal=1;startSize=30;horizontalStack=0;resizeParent=1;resizeParentMax=0;resizeLast=0;collapsible=1;marginBottom=0;whiteSpace=wrap;html=1;" vertex="1" parent="5_OHL3jlzMaZgzvaST_B-0">
          <mxGeometry x="210" y="560" width="186" height="68" as="geometry" />
        </mxCell>
        <mxCell id="5_OHL3jlzMaZgzvaST_B-50" value="" style="line;strokeWidth=1;fillColor=none;align=left;verticalAlign=middle;spacingTop=-1;spacingLeft=3;spacingRight=3;rotatable=0;labelPosition=right;points=[];portConstraint=eastwest;strokeColor=inherit;" vertex="1" parent="5_OHL3jlzMaZgzvaST_B-49">
          <mxGeometry y="30" width="186" height="8" as="geometry" />
        </mxCell>
        <mxCell id="5_OHL3jlzMaZgzvaST_B-51" value="+createAccount()" style="text;strokeColor=none;fillColor=none;align=left;verticalAlign=middle;spacingLeft=4;spacingRight=4;overflow=hidden;points=[[0,0.5],[1,0.5]];portConstraint=eastwest;rotatable=0;whiteSpace=wrap;html=1;" vertex="1" parent="5_OHL3jlzMaZgzvaST_B-49">
          <mxGeometry y="38" width="186" height="30" as="geometry" />
        </mxCell>
        <mxCell id="5_OHL3jlzMaZgzvaST_B-52" value="&lt;div&gt;&amp;lt;&amp;lt;interface&amp;gt;&amp;gt;&lt;/div&gt;&lt;div&gt;Observer&lt;/div&gt;" style="swimlane;fontStyle=0;childLayout=stackLayout;horizontal=1;startSize=30;horizontalStack=0;resizeParent=1;resizeParentMax=0;resizeLast=0;collapsible=1;marginBottom=0;whiteSpace=wrap;html=1;" vertex="1" parent="5_OHL3jlzMaZgzvaST_B-0">
          <mxGeometry x="20" y="660" width="166" height="68" as="geometry" />
        </mxCell>
        <mxCell id="5_OHL3jlzMaZgzvaST_B-53" value="" style="line;strokeWidth=1;fillColor=none;align=left;verticalAlign=middle;spacingTop=-1;spacingLeft=3;spacingRight=3;rotatable=0;labelPosition=right;points=[];portConstraint=eastwest;strokeColor=inherit;" vertex="1" parent="5_OHL3jlzMaZgzvaST_B-52">
          <mxGeometry y="30" width="166" height="8" as="geometry" />
        </mxCell>
        <mxCell id="5_OHL3jlzMaZgzvaST_B-54" value="+onUpdate()" style="text;strokeColor=none;fillColor=none;align=left;verticalAlign=middle;spacingLeft=4;spacingRight=4;overflow=hidden;points=[[0,0.5],[1,0.5]];portConstraint=eastwest;rotatable=0;whiteSpace=wrap;html=1;" vertex="1" parent="5_OHL3jlzMaZgzvaST_B-52">
          <mxGeometry y="38" width="166" height="30" as="geometry" />
        </mxCell>
        <mxCell id="5_OHL3jlzMaZgzvaST_B-55" value="&lt;div&gt;EmailSender&lt;/div&gt;" style="swimlane;fontStyle=0;childLayout=stackLayout;horizontal=1;startSize=30;horizontalStack=0;resizeParent=1;resizeParentMax=0;resizeLast=0;collapsible=1;marginBottom=0;whiteSpace=wrap;html=1;" vertex="1" parent="5_OHL3jlzMaZgzvaST_B-0">
          <mxGeometry x="20" y="780" width="166" height="68" as="geometry" />
        </mxCell>
        <mxCell id="5_OHL3jlzMaZgzvaST_B-56" value="" style="line;strokeWidth=1;fillColor=none;align=left;verticalAlign=middle;spacingTop=-1;spacingLeft=3;spacingRight=3;rotatable=0;labelPosition=right;points=[];portConstraint=eastwest;strokeColor=inherit;" vertex="1" parent="5_OHL3jlzMaZgzvaST_B-55">
          <mxGeometry y="30" width="166" height="8" as="geometry" />
        </mxCell>
        <mxCell id="5_OHL3jlzMaZgzvaST_B-57" value="+onUpdate()" style="text;strokeColor=none;fillColor=none;align=left;verticalAlign=middle;spacingLeft=4;spacingRight=4;overflow=hidden;points=[[0,0.5],[1,0.5]];portConstraint=eastwest;rotatable=0;whiteSpace=wrap;html=1;" vertex="1" parent="5_OHL3jlzMaZgzvaST_B-55">
          <mxGeometry y="38" width="166" height="30" as="geometry" />
        </mxCell>
        <mxCell id="5_OHL3jlzMaZgzvaST_B-58" value="&lt;div&gt;&amp;lt;&amp;lt;interface&amp;gt;&amp;gt;&lt;/div&gt;&lt;div&gt;Subject&lt;/div&gt;" style="swimlane;fontStyle=0;childLayout=stackLayout;horizontal=1;startSize=30;horizontalStack=0;resizeParent=1;resizeParentMax=0;resizeLast=0;collapsible=1;marginBottom=0;whiteSpace=wrap;html=1;" vertex="1" parent="5_OHL3jlzMaZgzvaST_B-0">
          <mxGeometry x="230" y="660" width="166" height="128" as="geometry" />
        </mxCell>
        <mxCell id="5_OHL3jlzMaZgzvaST_B-59" value="" style="line;strokeWidth=1;fillColor=none;align=left;verticalAlign=middle;spacingTop=-1;spacingLeft=3;spacingRight=3;rotatable=0;labelPosition=right;points=[];portConstraint=eastwest;strokeColor=inherit;" vertex="1" parent="5_OHL3jlzMaZgzvaST_B-58">
          <mxGeometry y="30" width="166" height="8" as="geometry" />
        </mxCell>
        <mxCell id="5_OHL3jlzMaZgzvaST_B-60" value="&lt;div&gt;+registerObserver()&lt;/div&gt;" style="text;strokeColor=none;fillColor=none;align=left;verticalAlign=middle;spacingLeft=4;spacingRight=4;overflow=hidden;points=[[0,0.5],[1,0.5]];portConstraint=eastwest;rotatable=0;whiteSpace=wrap;html=1;" vertex="1" parent="5_OHL3jlzMaZgzvaST_B-58">
          <mxGeometry y="38" width="166" height="30" as="geometry" />
        </mxCell>
        <mxCell id="5_OHL3jlzMaZgzvaST_B-61" value="&lt;div&gt;+removeObserver()&lt;/div&gt;" style="text;strokeColor=none;fillColor=none;align=left;verticalAlign=middle;spacingLeft=4;spacingRight=4;overflow=hidden;points=[[0,0.5],[1,0.5]];portConstraint=eastwest;rotatable=0;whiteSpace=wrap;html=1;" vertex="1" parent="5_OHL3jlzMaZgzvaST_B-58">
          <mxGeometry y="68" width="166" height="30" as="geometry" />
        </mxCell>
        <mxCell id="5_OHL3jlzMaZgzvaST_B-62" value="&lt;div&gt;+notifyObservers()&lt;/div&gt;" style="text;strokeColor=none;fillColor=none;align=left;verticalAlign=middle;spacingLeft=4;spacingRight=4;overflow=hidden;points=[[0,0.5],[1,0.5]];portConstraint=eastwest;rotatable=0;whiteSpace=wrap;html=1;" vertex="1" parent="5_OHL3jlzMaZgzvaST_B-58">
          <mxGeometry y="98" width="166" height="30" as="geometry" />
        </mxCell>
        <mxCell id="5_OHL3jlzMaZgzvaST_B-63" value="&lt;div&gt;NotifySubject&lt;/div&gt;" style="swimlane;fontStyle=0;childLayout=stackLayout;horizontal=1;startSize=30;horizontalStack=0;resizeParent=1;resizeParentMax=0;resizeLast=0;collapsible=1;marginBottom=0;whiteSpace=wrap;html=1;" vertex="1" parent="5_OHL3jlzMaZgzvaST_B-0">
          <mxGeometry x="230" y="840" width="166" height="158" as="geometry" />
        </mxCell>
        <mxCell id="5_OHL3jlzMaZgzvaST_B-119" value="&lt;div&gt;+observersList&lt;/div&gt;" style="text;strokeColor=none;fillColor=none;align=left;verticalAlign=middle;spacingLeft=4;spacingRight=4;overflow=hidden;points=[[0,0.5],[1,0.5]];portConstraint=eastwest;rotatable=0;whiteSpace=wrap;html=1;" vertex="1" parent="5_OHL3jlzMaZgzvaST_B-63">
          <mxGeometry y="30" width="166" height="30" as="geometry" />
        </mxCell>
        <mxCell id="5_OHL3jlzMaZgzvaST_B-64" value="" style="line;strokeWidth=1;fillColor=none;align=left;verticalAlign=middle;spacingTop=-1;spacingLeft=3;spacingRight=3;rotatable=0;labelPosition=right;points=[];portConstraint=eastwest;strokeColor=inherit;" vertex="1" parent="5_OHL3jlzMaZgzvaST_B-63">
          <mxGeometry y="60" width="166" height="8" as="geometry" />
        </mxCell>
        <mxCell id="5_OHL3jlzMaZgzvaST_B-66" value="&lt;div&gt;+registerObserver()&lt;/div&gt;" style="text;strokeColor=none;fillColor=none;align=left;verticalAlign=middle;spacingLeft=4;spacingRight=4;overflow=hidden;points=[[0,0.5],[1,0.5]];portConstraint=eastwest;rotatable=0;whiteSpace=wrap;html=1;" vertex="1" parent="5_OHL3jlzMaZgzvaST_B-63">
          <mxGeometry y="68" width="166" height="30" as="geometry" />
        </mxCell>
        <mxCell id="5_OHL3jlzMaZgzvaST_B-68" value="&lt;div&gt;+notifyObservers()&lt;/div&gt;" style="text;strokeColor=none;fillColor=none;align=left;verticalAlign=middle;spacingLeft=4;spacingRight=4;overflow=hidden;points=[[0,0.5],[1,0.5]];portConstraint=eastwest;rotatable=0;whiteSpace=wrap;html=1;" vertex="1" parent="5_OHL3jlzMaZgzvaST_B-63">
          <mxGeometry y="98" width="166" height="30" as="geometry" />
        </mxCell>
        <mxCell id="5_OHL3jlzMaZgzvaST_B-67" value="&lt;div&gt;+removeObserver()&lt;/div&gt;" style="text;strokeColor=none;fillColor=none;align=left;verticalAlign=middle;spacingLeft=4;spacingRight=4;overflow=hidden;points=[[0,0.5],[1,0.5]];portConstraint=eastwest;rotatable=0;whiteSpace=wrap;html=1;" vertex="1" parent="5_OHL3jlzMaZgzvaST_B-63">
          <mxGeometry y="128" width="166" height="30" as="geometry" />
        </mxCell>
        <mxCell id="5_OHL3jlzMaZgzvaST_B-69" value="&lt;div&gt;&amp;lt;&amp;lt;interface&amp;gt;&amp;gt;&lt;/div&gt;&lt;div&gt;InterestCalculatorStrategy&lt;/div&gt;" style="swimlane;fontStyle=0;childLayout=stackLayout;horizontal=1;startSize=30;horizontalStack=0;resizeParent=1;resizeParentMax=0;resizeLast=0;collapsible=1;marginBottom=0;whiteSpace=wrap;html=1;" vertex="1" parent="5_OHL3jlzMaZgzvaST_B-0">
          <mxGeometry x="440" y="360" width="166" height="68" as="geometry" />
        </mxCell>
        <mxCell id="5_OHL3jlzMaZgzvaST_B-70" value="" style="line;strokeWidth=1;fillColor=none;align=left;verticalAlign=middle;spacingTop=-1;spacingLeft=3;spacingRight=3;rotatable=0;labelPosition=right;points=[];portConstraint=eastwest;strokeColor=inherit;" vertex="1" parent="5_OHL3jlzMaZgzvaST_B-69">
          <mxGeometry y="30" width="166" height="8" as="geometry" />
        </mxCell>
        <mxCell id="5_OHL3jlzMaZgzvaST_B-71" value="&lt;div&gt;+calculateInterest()&lt;/div&gt;" style="text;strokeColor=none;fillColor=none;align=left;verticalAlign=middle;spacingLeft=4;spacingRight=4;overflow=hidden;points=[[0,0.5],[1,0.5]];portConstraint=eastwest;rotatable=0;whiteSpace=wrap;html=1;" vertex="1" parent="5_OHL3jlzMaZgzvaST_B-69">
          <mxGeometry y="38" width="166" height="30" as="geometry" />
        </mxCell>
        <mxCell id="5_OHL3jlzMaZgzvaST_B-74" value="&lt;div&gt;&amp;lt;&amp;lt;interface&amp;gt;&amp;gt;&lt;/div&gt;&lt;div&gt;MinimumPaymentCalculatorStrategy&lt;/div&gt;" style="swimlane;fontStyle=0;childLayout=stackLayout;horizontal=1;startSize=30;horizontalStack=0;resizeParent=1;resizeParentMax=0;resizeLast=0;collapsible=1;marginBottom=0;whiteSpace=wrap;html=1;" vertex="1" parent="5_OHL3jlzMaZgzvaST_B-0">
          <mxGeometry x="440" y="485" width="220" height="68" as="geometry" />
        </mxCell>
        <mxCell id="5_OHL3jlzMaZgzvaST_B-75" value="" style="line;strokeWidth=1;fillColor=none;align=left;verticalAlign=middle;spacingTop=-1;spacingLeft=3;spacingRight=3;rotatable=0;labelPosition=right;points=[];portConstraint=eastwest;strokeColor=inherit;" vertex="1" parent="5_OHL3jlzMaZgzvaST_B-74">
          <mxGeometry y="30" width="220" height="8" as="geometry" />
        </mxCell>
        <mxCell id="5_OHL3jlzMaZgzvaST_B-76" value="&lt;div&gt;+calculateInterest()&lt;/div&gt;" style="text;strokeColor=none;fillColor=none;align=left;verticalAlign=middle;spacingLeft=4;spacingRight=4;overflow=hidden;points=[[0,0.5],[1,0.5]];portConstraint=eastwest;rotatable=0;whiteSpace=wrap;html=1;" vertex="1" parent="5_OHL3jlzMaZgzvaST_B-74">
          <mxGeometry y="38" width="220" height="30" as="geometry" />
        </mxCell>
        <mxCell id="5_OHL3jlzMaZgzvaST_B-77" value="&lt;div&gt;&amp;lt;&amp;lt;interface&amp;gt;&amp;gt;&lt;/div&gt;&lt;div&gt;AccountOperationService&lt;/div&gt;" style="swimlane;fontStyle=0;childLayout=stackLayout;horizontal=1;startSize=30;horizontalStack=0;resizeParent=1;resizeParentMax=0;resizeLast=0;collapsible=1;marginBottom=0;whiteSpace=wrap;html=1;" vertex="1" parent="5_OHL3jlzMaZgzvaST_B-0">
          <mxGeometry x="440" y="600" width="220" height="128" as="geometry" />
        </mxCell>
        <mxCell id="5_OHL3jlzMaZgzvaST_B-78" value="" style="line;strokeWidth=1;fillColor=none;align=left;verticalAlign=middle;spacingTop=-1;spacingLeft=3;spacingRight=3;rotatable=0;labelPosition=right;points=[];portConstraint=eastwest;strokeColor=inherit;" vertex="1" parent="5_OHL3jlzMaZgzvaST_B-77">
          <mxGeometry y="30" width="220" height="8" as="geometry" />
        </mxCell>
        <mxCell id="5_OHL3jlzMaZgzvaST_B-79" value="&lt;div&gt;+deposit()&lt;/div&gt;" style="text;strokeColor=none;fillColor=none;align=left;verticalAlign=middle;spacingLeft=4;spacingRight=4;overflow=hidden;points=[[0,0.5],[1,0.5]];portConstraint=eastwest;rotatable=0;whiteSpace=wrap;html=1;" vertex="1" parent="5_OHL3jlzMaZgzvaST_B-77">
          <mxGeometry y="38" width="220" height="30" as="geometry" />
        </mxCell>
        <mxCell id="5_OHL3jlzMaZgzvaST_B-80" value="&lt;div&gt;+withdraw()&lt;/div&gt;" style="text;strokeColor=none;fillColor=none;align=left;verticalAlign=middle;spacingLeft=4;spacingRight=4;overflow=hidden;points=[[0,0.5],[1,0.5]];portConstraint=eastwest;rotatable=0;whiteSpace=wrap;html=1;" vertex="1" parent="5_OHL3jlzMaZgzvaST_B-77">
          <mxGeometry y="68" width="220" height="30" as="geometry" />
        </mxCell>
        <mxCell id="5_OHL3jlzMaZgzvaST_B-81" value="&lt;div&gt;+addInterest()&lt;/div&gt;" style="text;strokeColor=none;fillColor=none;align=left;verticalAlign=middle;spacingLeft=4;spacingRight=4;overflow=hidden;points=[[0,0.5],[1,0.5]];portConstraint=eastwest;rotatable=0;whiteSpace=wrap;html=1;" vertex="1" parent="5_OHL3jlzMaZgzvaST_B-77">
          <mxGeometry y="98" width="220" height="30" as="geometry" />
        </mxCell>
        <mxCell id="5_OHL3jlzMaZgzvaST_B-82" value="" style="endArrow=open;endFill=1;endSize=12;html=1;rounded=0;" edge="1" parent="5_OHL3jlzMaZgzvaST_B-0">
          <mxGeometry width="160" relative="1" as="geometry">
            <mxPoint x="160" y="90" as="sourcePoint" />
            <mxPoint x="230" y="90" as="targetPoint" />
          </mxGeometry>
        </mxCell>
        <mxCell id="5_OHL3jlzMaZgzvaST_B-84" value="0..*" style="edgeLabel;html=1;align=center;verticalAlign=middle;resizable=0;points=[];" vertex="1" connectable="0" parent="5_OHL3jlzMaZgzvaST_B-82">
          <mxGeometry x="0.12" relative="1" as="geometry">
            <mxPoint x="11" y="-10" as="offset" />
          </mxGeometry>
        </mxCell>
        <mxCell id="5_OHL3jlzMaZgzvaST_B-85" value="" style="endArrow=open;endFill=1;endSize=12;html=1;rounded=0;exitX=0.5;exitY=1;exitDx=0;exitDy=0;entryX=0.5;entryY=0;entryDx=0;entryDy=0;" edge="1" parent="5_OHL3jlzMaZgzvaST_B-0" source="5_OHL3jlzMaZgzvaST_B-3" target="5_OHL3jlzMaZgzvaST_B-7">
          <mxGeometry width="160" relative="1" as="geometry">
            <mxPoint x="170" y="100" as="sourcePoint" />
            <mxPoint x="240" y="100" as="targetPoint" />
          </mxGeometry>
        </mxCell>
        <mxCell id="5_OHL3jlzMaZgzvaST_B-87" value="" style="endArrow=open;endFill=1;endSize=12;html=1;rounded=0;exitX=1;exitY=0.5;exitDx=0;exitDy=0;" edge="1" parent="5_OHL3jlzMaZgzvaST_B-0" source="5_OHL3jlzMaZgzvaST_B-8" target="5_OHL3jlzMaZgzvaST_B-12">
          <mxGeometry width="160" relative="1" as="geometry">
            <mxPoint x="100" y="128" as="sourcePoint" />
            <mxPoint x="100" y="242" as="targetPoint" />
          </mxGeometry>
        </mxCell>
        <mxCell id="5_OHL3jlzMaZgzvaST_B-88" value="" style="endArrow=open;endFill=1;endSize=12;html=1;rounded=0;exitX=0.999;exitY=0.127;exitDx=0;exitDy=0;exitPerimeter=0;" edge="1" parent="5_OHL3jlzMaZgzvaST_B-0" source="5_OHL3jlzMaZgzvaST_B-45">
          <mxGeometry width="160" relative="1" as="geometry">
            <mxPoint x="160" y="474.5" as="sourcePoint" />
            <mxPoint x="160" y="110" as="targetPoint" />
            <Array as="points">
              <mxPoint x="190" y="482" />
              <mxPoint x="190" y="410" />
              <mxPoint x="190" y="111" />
            </Array>
          </mxGeometry>
        </mxCell>
        <mxCell id="5_OHL3jlzMaZgzvaST_B-89" value="" style="endArrow=block;dashed=1;endFill=0;endSize=12;html=1;rounded=0;exitX=0.5;exitY=0;exitDx=0;exitDy=0;entryX=0.435;entryY=1.007;entryDx=0;entryDy=0;entryPerimeter=0;" edge="1" parent="5_OHL3jlzMaZgzvaST_B-0" source="5_OHL3jlzMaZgzvaST_B-49" target="5_OHL3jlzMaZgzvaST_B-48">
          <mxGeometry width="160" relative="1" as="geometry">
            <mxPoint x="410" y="280" as="sourcePoint" />
            <mxPoint x="570" y="280" as="targetPoint" />
          </mxGeometry>
        </mxCell>
        <mxCell id="5_OHL3jlzMaZgzvaST_B-90" value="" style="endArrow=open;endFill=1;endSize=12;html=1;rounded=0;exitX=-0.003;exitY=-0.087;exitDx=0;exitDy=0;entryX=0.456;entryY=0.98;entryDx=0;entryDy=0;entryPerimeter=0;exitPerimeter=0;" edge="1" parent="5_OHL3jlzMaZgzvaST_B-0" source="5_OHL3jlzMaZgzvaST_B-51" target="5_OHL3jlzMaZgzvaST_B-45">
          <mxGeometry width="160" relative="1" as="geometry">
            <mxPoint x="170" y="287" as="sourcePoint" />
            <mxPoint x="240" y="286" as="targetPoint" />
            <Array as="points">
              <mxPoint x="84" y="595" />
            </Array>
          </mxGeometry>
        </mxCell>
        <mxCell id="5_OHL3jlzMaZgzvaST_B-116" value="" style="endArrow=block;dashed=1;endFill=0;endSize=12;html=1;rounded=0;exitX=0.5;exitY=0;exitDx=0;exitDy=0;entryX=0.56;entryY=1.007;entryDx=0;entryDy=0;entryPerimeter=0;" edge="1" parent="5_OHL3jlzMaZgzvaST_B-0">
          <mxGeometry width="160" relative="1" as="geometry">
            <mxPoint x="102.5" y="780" as="sourcePoint" />
            <mxPoint x="102.5" y="728" as="targetPoint" />
          </mxGeometry>
        </mxCell>
        <mxCell id="5_OHL3jlzMaZgzvaST_B-117" value="" style="endArrow=block;dashed=1;endFill=0;endSize=12;html=1;rounded=0;exitX=0.5;exitY=0;exitDx=0;exitDy=0;entryX=0.56;entryY=1.007;entryDx=0;entryDy=0;entryPerimeter=0;" edge="1" parent="5_OHL3jlzMaZgzvaST_B-0">
          <mxGeometry width="160" relative="1" as="geometry">
            <mxPoint x="322.5" y="840" as="sourcePoint" />
            <mxPoint x="322.5" y="788" as="targetPoint" />
          </mxGeometry>
        </mxCell>
        <mxCell id="5_OHL3jlzMaZgzvaST_B-118" value="" style="endArrow=open;endFill=1;endSize=12;html=1;rounded=0;exitX=0;exitY=0.5;exitDx=0;exitDy=0;entryX=1;entryY=0.5;entryDx=0;entryDy=0;" edge="1" parent="5_OHL3jlzMaZgzvaST_B-0" source="5_OHL3jlzMaZgzvaST_B-68" target="5_OHL3jlzMaZgzvaST_B-54">
          <mxGeometry width="160" relative="1" as="geometry">
            <mxPoint x="239" y="605" as="sourcePoint" />
            <mxPoint x="94" y="517" as="targetPoint" />
            <Array as="points">
              <mxPoint x="210" y="953" />
              <mxPoint x="210" y="713" />
            </Array>
          </mxGeometry>
        </mxCell>
        <mxCell id="5_OHL3jlzMaZgzvaST_B-120" value="" style="endArrow=open;endFill=1;endSize=12;html=1;rounded=0;exitX=0.5;exitY=0;exitDx=0;exitDy=0;entryX=1;entryY=0.75;entryDx=0;entryDy=0;" edge="1" parent="5_OHL3jlzMaZgzvaST_B-0" source="5_OHL3jlzMaZgzvaST_B-3" target="5_OHL3jlzMaZgzvaST_B-69">
          <mxGeometry width="160" relative="1" as="geometry">
            <mxPoint x="160" y="180" as="sourcePoint" />
            <mxPoint x="600" y="413" as="targetPoint" />
            <Array as="points">
              <mxPoint x="90" y="30" />
              <mxPoint x="230" y="30" />
              <mxPoint x="640" y="30" />
              <mxPoint x="640" y="413" />
            </Array>
          </mxGeometry>
        </mxCell>
        <mxCell id="5_OHL3jlzMaZgzvaST_B-121" value="&lt;div&gt;&lt;span style=&quot;background-color: initial;&quot;&gt;AccountOperationServiceImpl&lt;/span&gt;&lt;br&gt;&lt;/div&gt;" style="swimlane;fontStyle=0;childLayout=stackLayout;horizontal=1;startSize=30;horizontalStack=0;resizeParent=1;resizeParentMax=0;resizeLast=0;collapsible=1;marginBottom=0;whiteSpace=wrap;html=1;" vertex="1" parent="5_OHL3jlzMaZgzvaST_B-0">
          <mxGeometry x="440" y="780" width="220" height="128" as="geometry" />
        </mxCell>
        <mxCell id="5_OHL3jlzMaZgzvaST_B-122" value="" style="line;strokeWidth=1;fillColor=none;align=left;verticalAlign=middle;spacingTop=-1;spacingLeft=3;spacingRight=3;rotatable=0;labelPosition=right;points=[];portConstraint=eastwest;strokeColor=inherit;" vertex="1" parent="5_OHL3jlzMaZgzvaST_B-121">
          <mxGeometry y="30" width="220" height="8" as="geometry" />
        </mxCell>
        <mxCell id="5_OHL3jlzMaZgzvaST_B-123" value="&lt;div&gt;+deposit()&lt;/div&gt;" style="text;strokeColor=none;fillColor=none;align=left;verticalAlign=middle;spacingLeft=4;spacingRight=4;overflow=hidden;points=[[0,0.5],[1,0.5]];portConstraint=eastwest;rotatable=0;whiteSpace=wrap;html=1;" vertex="1" parent="5_OHL3jlzMaZgzvaST_B-121">
          <mxGeometry y="38" width="220" height="30" as="geometry" />
        </mxCell>
        <mxCell id="5_OHL3jlzMaZgzvaST_B-124" value="&lt;div&gt;+withdraw()&lt;/div&gt;" style="text;strokeColor=none;fillColor=none;align=left;verticalAlign=middle;spacingLeft=4;spacingRight=4;overflow=hidden;points=[[0,0.5],[1,0.5]];portConstraint=eastwest;rotatable=0;whiteSpace=wrap;html=1;" vertex="1" parent="5_OHL3jlzMaZgzvaST_B-121">
          <mxGeometry y="68" width="220" height="30" as="geometry" />
        </mxCell>
        <mxCell id="5_OHL3jlzMaZgzvaST_B-125" value="&lt;div&gt;+addInterest()&lt;/div&gt;" style="text;strokeColor=none;fillColor=none;align=left;verticalAlign=middle;spacingLeft=4;spacingRight=4;overflow=hidden;points=[[0,0.5],[1,0.5]];portConstraint=eastwest;rotatable=0;whiteSpace=wrap;html=1;" vertex="1" parent="5_OHL3jlzMaZgzvaST_B-121">
          <mxGeometry y="98" width="220" height="30" as="geometry" />
        </mxCell>
        <mxCell id="5_OHL3jlzMaZgzvaST_B-129" value="&lt;div&gt;&amp;lt;&amp;lt;interface&amp;gt;&amp;gt;&lt;/div&gt;Rule" style="swimlane;fontStyle=0;childLayout=stackLayout;horizontal=1;startSize=30;horizontalStack=0;resizeParent=1;resizeParentMax=0;resizeLast=0;collapsible=1;marginBottom=0;whiteSpace=wrap;html=1;" vertex="1" parent="5_OHL3jlzMaZgzvaST_B-0">
          <mxGeometry x="690" y="130" width="140" height="98" as="geometry" />
        </mxCell>
        <mxCell id="5_OHL3jlzMaZgzvaST_B-130" value="" style="line;strokeWidth=1;fillColor=none;align=left;verticalAlign=middle;spacingTop=-1;spacingLeft=3;spacingRight=3;rotatable=0;labelPosition=right;points=[];portConstraint=eastwest;strokeColor=inherit;" vertex="1" parent="5_OHL3jlzMaZgzvaST_B-129">
          <mxGeometry y="30" width="140" height="8" as="geometry" />
        </mxCell>
        <mxCell id="5_OHL3jlzMaZgzvaST_B-131" value="+matches()" style="text;strokeColor=none;fillColor=none;align=left;verticalAlign=middle;spacingLeft=4;spacingRight=4;overflow=hidden;points=[[0,0.5],[1,0.5]];portConstraint=eastwest;rotatable=0;whiteSpace=wrap;html=1;" vertex="1" parent="5_OHL3jlzMaZgzvaST_B-129">
          <mxGeometry y="38" width="140" height="30" as="geometry" />
        </mxCell>
        <mxCell id="5_OHL3jlzMaZgzvaST_B-132" value="+apply()" style="text;strokeColor=none;fillColor=none;align=left;verticalAlign=middle;spacingLeft=4;spacingRight=4;overflow=hidden;points=[[0,0.5],[1,0.5]];portConstraint=eastwest;rotatable=0;whiteSpace=wrap;html=1;" vertex="1" parent="5_OHL3jlzMaZgzvaST_B-129">
          <mxGeometry y="68" width="140" height="30" as="geometry" />
        </mxCell>
        <mxCell id="5_OHL3jlzMaZgzvaST_B-133" value="&lt;div&gt;&amp;lt;&amp;lt;interface&amp;gt;&amp;gt;&lt;/div&gt;BankTransactionRule&lt;div&gt;&lt;/div&gt;" style="swimlane;fontStyle=0;childLayout=stackLayout;horizontal=1;startSize=30;horizontalStack=0;resizeParent=1;resizeParentMax=0;resizeLast=0;collapsible=1;marginBottom=0;whiteSpace=wrap;html=1;" vertex="1" parent="5_OHL3jlzMaZgzvaST_B-0">
          <mxGeometry x="690" y="298" width="140" height="98" as="geometry" />
        </mxCell>
        <mxCell id="5_OHL3jlzMaZgzvaST_B-134" value="" style="line;strokeWidth=1;fillColor=none;align=left;verticalAlign=middle;spacingTop=-1;spacingLeft=3;spacingRight=3;rotatable=0;labelPosition=right;points=[];portConstraint=eastwest;strokeColor=inherit;" vertex="1" parent="5_OHL3jlzMaZgzvaST_B-133">
          <mxGeometry y="30" width="140" height="8" as="geometry" />
        </mxCell>
        <mxCell id="5_OHL3jlzMaZgzvaST_B-135" value="+matches()" style="text;strokeColor=none;fillColor=none;align=left;verticalAlign=middle;spacingLeft=4;spacingRight=4;overflow=hidden;points=[[0,0.5],[1,0.5]];portConstraint=eastwest;rotatable=0;whiteSpace=wrap;html=1;" vertex="1" parent="5_OHL3jlzMaZgzvaST_B-133">
          <mxGeometry y="38" width="140" height="30" as="geometry" />
        </mxCell>
        <mxCell id="5_OHL3jlzMaZgzvaST_B-136" value="+apply()" style="text;strokeColor=none;fillColor=none;align=left;verticalAlign=middle;spacingLeft=4;spacingRight=4;overflow=hidden;points=[[0,0.5],[1,0.5]];portConstraint=eastwest;rotatable=0;whiteSpace=wrap;html=1;" vertex="1" parent="5_OHL3jlzMaZgzvaST_B-133">
          <mxGeometry y="68" width="140" height="30" as="geometry" />
        </mxCell>
        <mxCell id="5_OHL3jlzMaZgzvaST_B-137" value="" style="endArrow=block;endSize=16;endFill=0;html=1;rounded=0;entryX=0.487;entryY=1.033;entryDx=0;entryDy=0;entryPerimeter=0;exitX=0.5;exitY=0;exitDx=0;exitDy=0;" edge="1" parent="5_OHL3jlzMaZgzvaST_B-0" source="5_OHL3jlzMaZgzvaST_B-133" target="5_OHL3jlzMaZgzvaST_B-132">
          <mxGeometry width="160" relative="1" as="geometry">
            <mxPoint x="530" y="280" as="sourcePoint" />
            <mxPoint x="690" y="280" as="targetPoint" />
          </mxGeometry>
        </mxCell>
        <mxCell id="5_OHL3jlzMaZgzvaST_B-138" value="RuleEngine&lt;div&gt;&lt;/div&gt;&lt;div&gt;&lt;/div&gt;" style="swimlane;fontStyle=0;childLayout=stackLayout;horizontal=1;startSize=30;horizontalStack=0;resizeParent=1;resizeParentMax=0;resizeLast=0;collapsible=1;marginBottom=0;whiteSpace=wrap;html=1;" vertex="1" parent="5_OHL3jlzMaZgzvaST_B-0">
          <mxGeometry x="690" y="485" width="140" height="158" as="geometry" />
        </mxCell>
        <mxCell id="5_OHL3jlzMaZgzvaST_B-143" value="+rules" style="text;strokeColor=none;fillColor=none;align=left;verticalAlign=middle;spacingLeft=4;spacingRight=4;overflow=hidden;points=[[0,0.5],[1,0.5]];portConstraint=eastwest;rotatable=0;whiteSpace=wrap;html=1;" vertex="1" parent="5_OHL3jlzMaZgzvaST_B-138">
          <mxGeometry y="30" width="140" height="30" as="geometry" />
        </mxCell>
        <mxCell id="5_OHL3jlzMaZgzvaST_B-139" value="" style="line;strokeWidth=1;fillColor=none;align=left;verticalAlign=middle;spacingTop=-1;spacingLeft=3;spacingRight=3;rotatable=0;labelPosition=right;points=[];portConstraint=eastwest;strokeColor=inherit;" vertex="1" parent="5_OHL3jlzMaZgzvaST_B-138">
          <mxGeometry y="60" width="140" height="8" as="geometry" />
        </mxCell>
        <mxCell id="5_OHL3jlzMaZgzvaST_B-140" value="+addRule()" style="text;strokeColor=none;fillColor=none;align=left;verticalAlign=middle;spacingLeft=4;spacingRight=4;overflow=hidden;points=[[0,0.5],[1,0.5]];portConstraint=eastwest;rotatable=0;whiteSpace=wrap;html=1;" vertex="1" parent="5_OHL3jlzMaZgzvaST_B-138">
          <mxGeometry y="68" width="140" height="30" as="geometry" />
        </mxCell>
        <mxCell id="5_OHL3jlzMaZgzvaST_B-141" value="+removeRule()" style="text;strokeColor=none;fillColor=none;align=left;verticalAlign=middle;spacingLeft=4;spacingRight=4;overflow=hidden;points=[[0,0.5],[1,0.5]];portConstraint=eastwest;rotatable=0;whiteSpace=wrap;html=1;" vertex="1" parent="5_OHL3jlzMaZgzvaST_B-138">
          <mxGeometry y="98" width="140" height="30" as="geometry" />
        </mxCell>
        <mxCell id="5_OHL3jlzMaZgzvaST_B-142" value="+process(" style="text;strokeColor=none;fillColor=none;align=left;verticalAlign=middle;spacingLeft=4;spacingRight=4;overflow=hidden;points=[[0,0.5],[1,0.5]];portConstraint=eastwest;rotatable=0;whiteSpace=wrap;html=1;" vertex="1" parent="5_OHL3jlzMaZgzvaST_B-138">
          <mxGeometry y="128" width="140" height="30" as="geometry" />
        </mxCell>
        <mxCell id="5_OHL3jlzMaZgzvaST_B-144" value="" style="endArrow=open;endFill=1;endSize=12;html=1;rounded=0;exitX=1;exitY=0.5;exitDx=0;exitDy=0;entryX=1;entryY=0.5;entryDx=0;entryDy=0;" edge="1" parent="5_OHL3jlzMaZgzvaST_B-0" source="5_OHL3jlzMaZgzvaST_B-143" target="5_OHL3jlzMaZgzvaST_B-131">
          <mxGeometry width="160" relative="1" as="geometry">
            <mxPoint x="100" y="60" as="sourcePoint" />
            <mxPoint x="850" y="180" as="targetPoint" />
            <Array as="points">
              <mxPoint x="850" y="530" />
              <mxPoint x="850" y="180" />
            </Array>
          </mxGeometry>
        </mxCell>
        <mxCell id="5_OHL3jlzMaZgzvaST_B-145" value="" style="endArrow=open;endFill=1;endSize=12;html=1;rounded=0;exitX=0.014;exitY=-0.26;exitDx=0;exitDy=0;entryX=1;entryY=0.5;entryDx=0;entryDy=0;exitPerimeter=0;" edge="1" parent="5_OHL3jlzMaZgzvaST_B-0" source="5_OHL3jlzMaZgzvaST_B-124" target="5_OHL3jlzMaZgzvaST_B-60">
          <mxGeometry width="160" relative="1" as="geometry">
            <mxPoint x="240" y="963" as="sourcePoint" />
            <mxPoint x="410" y="710" as="targetPoint" />
            <Array as="points">
              <mxPoint x="420" y="840" />
              <mxPoint x="420" y="713" />
            </Array>
          </mxGeometry>
        </mxCell>
        <mxCell id="5_OHL3jlzMaZgzvaST_B-146" value="" style="endArrow=open;endFill=1;endSize=12;html=1;rounded=0;exitX=1;exitY=0.5;exitDx=0;exitDy=0;entryX=0.481;entryY=1.04;entryDx=0;entryDy=0;entryPerimeter=0;" edge="1" parent="5_OHL3jlzMaZgzvaST_B-0" source="5_OHL3jlzMaZgzvaST_B-121" target="5_OHL3jlzMaZgzvaST_B-142">
          <mxGeometry width="160" relative="1" as="geometry">
            <mxPoint x="757" y="855" as="sourcePoint" />
            <mxPoint x="710" y="728" as="targetPoint" />
            <Array as="points">
              <mxPoint x="757" y="844" />
            </Array>
          </mxGeometry>
        </mxCell>
        <mxCell id="5_OHL3jlzMaZgzvaST_B-94" value="Data Persistent" style="swimlane;whiteSpace=wrap;html=1;strokeColor=#33FFFF;fillColor=#33FFFF;" vertex="1" parent="WIyWlLk6GJQsqaUBKTNV-1">
          <mxGeometry x="-100" y="1190" width="890" height="290" as="geometry" />
        </mxCell>
        <mxCell id="5_OHL3jlzMaZgzvaST_B-98" value="&lt;div&gt;&amp;lt;&amp;lt;interface&amp;gt;&amp;gt;&lt;/div&gt;&lt;div&gt;AccountRepository&lt;/div&gt;" style="swimlane;fontStyle=0;childLayout=stackLayout;horizontal=1;startSize=30;horizontalStack=0;resizeParent=1;resizeParentMax=0;resizeLast=0;collapsible=1;marginBottom=0;whiteSpace=wrap;html=1;" vertex="1" parent="5_OHL3jlzMaZgzvaST_B-94">
          <mxGeometry x="40" y="50" width="166" height="218" as="geometry" />
        </mxCell>
        <mxCell id="5_OHL3jlzMaZgzvaST_B-99" value="" style="line;strokeWidth=1;fillColor=none;align=left;verticalAlign=middle;spacingTop=-1;spacingLeft=3;spacingRight=3;rotatable=0;labelPosition=right;points=[];portConstraint=eastwest;strokeColor=inherit;" vertex="1" parent="5_OHL3jlzMaZgzvaST_B-98">
          <mxGeometry y="30" width="166" height="8" as="geometry" />
        </mxCell>
        <mxCell id="5_OHL3jlzMaZgzvaST_B-100" value="+save(Account account)" style="text;strokeColor=none;fillColor=none;align=left;verticalAlign=middle;spacingLeft=4;spacingRight=4;overflow=hidden;points=[[0,0.5],[1,0.5]];portConstraint=eastwest;rotatable=0;whiteSpace=wrap;html=1;" vertex="1" parent="5_OHL3jlzMaZgzvaST_B-98">
          <mxGeometry y="38" width="166" height="30" as="geometry" />
        </mxCell>
        <mxCell id="5_OHL3jlzMaZgzvaST_B-101" value="+update(Account account)" style="text;strokeColor=none;fillColor=none;align=left;verticalAlign=middle;spacingLeft=4;spacingRight=4;overflow=hidden;points=[[0,0.5],[1,0.5]];portConstraint=eastwest;rotatable=0;whiteSpace=wrap;html=1;" vertex="1" parent="5_OHL3jlzMaZgzvaST_B-98">
          <mxGeometry y="68" width="166" height="30" as="geometry" />
        </mxCell>
        <mxCell id="5_OHL3jlzMaZgzvaST_B-102" value="+delete(Account account)" style="text;strokeColor=none;fillColor=none;align=left;verticalAlign=middle;spacingLeft=4;spacingRight=4;overflow=hidden;points=[[0,0.5],[1,0.5]];portConstraint=eastwest;rotatable=0;whiteSpace=wrap;html=1;" vertex="1" parent="5_OHL3jlzMaZgzvaST_B-98">
          <mxGeometry y="98" width="166" height="30" as="geometry" />
        </mxCell>
        <mxCell id="5_OHL3jlzMaZgzvaST_B-103" value="+getAccount(String number)" style="text;strokeColor=none;fillColor=none;align=left;verticalAlign=middle;spacingLeft=4;spacingRight=4;overflow=hidden;points=[[0,0.5],[1,0.5]];portConstraint=eastwest;rotatable=0;whiteSpace=wrap;html=1;" vertex="1" parent="5_OHL3jlzMaZgzvaST_B-98">
          <mxGeometry y="128" width="166" height="30" as="geometry" />
        </mxCell>
        <mxCell id="5_OHL3jlzMaZgzvaST_B-104" value="+getAllAccounts()" style="text;strokeColor=none;fillColor=none;align=left;verticalAlign=middle;spacingLeft=4;spacingRight=4;overflow=hidden;points=[[0,0.5],[1,0.5]];portConstraint=eastwest;rotatable=0;whiteSpace=wrap;html=1;" vertex="1" parent="5_OHL3jlzMaZgzvaST_B-98">
          <mxGeometry y="158" width="166" height="30" as="geometry" />
        </mxCell>
        <mxCell id="5_OHL3jlzMaZgzvaST_B-105" value="+isNotExist(String number)" style="text;strokeColor=none;fillColor=none;align=left;verticalAlign=middle;spacingLeft=4;spacingRight=4;overflow=hidden;points=[[0,0.5],[1,0.5]];portConstraint=eastwest;rotatable=0;whiteSpace=wrap;html=1;" vertex="1" parent="5_OHL3jlzMaZgzvaST_B-98">
          <mxGeometry y="188" width="166" height="30" as="geometry" />
        </mxCell>
        <mxCell id="5_OHL3jlzMaZgzvaST_B-106" value="&lt;div&gt;AccountInMemoryRepository&lt;/div&gt;" style="swimlane;fontStyle=0;childLayout=stackLayout;horizontal=1;startSize=30;horizontalStack=0;resizeParent=1;resizeParentMax=0;resizeLast=0;collapsible=1;marginBottom=0;whiteSpace=wrap;html=1;" vertex="1" parent="5_OHL3jlzMaZgzvaST_B-94">
          <mxGeometry x="480" y="50" width="166" height="218" as="geometry" />
        </mxCell>
        <mxCell id="5_OHL3jlzMaZgzvaST_B-107" value="" style="line;strokeWidth=1;fillColor=none;align=left;verticalAlign=middle;spacingTop=-1;spacingLeft=3;spacingRight=3;rotatable=0;labelPosition=right;points=[];portConstraint=eastwest;strokeColor=inherit;" vertex="1" parent="5_OHL3jlzMaZgzvaST_B-106">
          <mxGeometry y="30" width="166" height="8" as="geometry" />
        </mxCell>
        <mxCell id="5_OHL3jlzMaZgzvaST_B-108" value="+save(Account account)" style="text;strokeColor=none;fillColor=none;align=left;verticalAlign=middle;spacingLeft=4;spacingRight=4;overflow=hidden;points=[[0,0.5],[1,0.5]];portConstraint=eastwest;rotatable=0;whiteSpace=wrap;html=1;" vertex="1" parent="5_OHL3jlzMaZgzvaST_B-106">
          <mxGeometry y="38" width="166" height="30" as="geometry" />
        </mxCell>
        <mxCell id="5_OHL3jlzMaZgzvaST_B-109" value="+update(Account account)" style="text;strokeColor=none;fillColor=none;align=left;verticalAlign=middle;spacingLeft=4;spacingRight=4;overflow=hidden;points=[[0,0.5],[1,0.5]];portConstraint=eastwest;rotatable=0;whiteSpace=wrap;html=1;" vertex="1" parent="5_OHL3jlzMaZgzvaST_B-106">
          <mxGeometry y="68" width="166" height="30" as="geometry" />
        </mxCell>
        <mxCell id="5_OHL3jlzMaZgzvaST_B-110" value="+delete(Account account)" style="text;strokeColor=none;fillColor=none;align=left;verticalAlign=middle;spacingLeft=4;spacingRight=4;overflow=hidden;points=[[0,0.5],[1,0.5]];portConstraint=eastwest;rotatable=0;whiteSpace=wrap;html=1;" vertex="1" parent="5_OHL3jlzMaZgzvaST_B-106">
          <mxGeometry y="98" width="166" height="30" as="geometry" />
        </mxCell>
        <mxCell id="5_OHL3jlzMaZgzvaST_B-111" value="+getAccount(String number)" style="text;strokeColor=none;fillColor=none;align=left;verticalAlign=middle;spacingLeft=4;spacingRight=4;overflow=hidden;points=[[0,0.5],[1,0.5]];portConstraint=eastwest;rotatable=0;whiteSpace=wrap;html=1;" vertex="1" parent="5_OHL3jlzMaZgzvaST_B-106">
          <mxGeometry y="128" width="166" height="30" as="geometry" />
        </mxCell>
        <mxCell id="5_OHL3jlzMaZgzvaST_B-112" value="+getAllAccounts()" style="text;strokeColor=none;fillColor=none;align=left;verticalAlign=middle;spacingLeft=4;spacingRight=4;overflow=hidden;points=[[0,0.5],[1,0.5]];portConstraint=eastwest;rotatable=0;whiteSpace=wrap;html=1;" vertex="1" parent="5_OHL3jlzMaZgzvaST_B-106">
          <mxGeometry y="158" width="166" height="30" as="geometry" />
        </mxCell>
        <mxCell id="5_OHL3jlzMaZgzvaST_B-113" value="+isNotExist(String number)" style="text;strokeColor=none;fillColor=none;align=left;verticalAlign=middle;spacingLeft=4;spacingRight=4;overflow=hidden;points=[[0,0.5],[1,0.5]];portConstraint=eastwest;rotatable=0;whiteSpace=wrap;html=1;" vertex="1" parent="5_OHL3jlzMaZgzvaST_B-106">
          <mxGeometry y="188" width="166" height="30" as="geometry" />
        </mxCell>
        <mxCell id="5_OHL3jlzMaZgzvaST_B-114" value="" style="endArrow=block;dashed=1;endFill=0;endSize=12;html=1;rounded=0;exitX=0;exitY=0.5;exitDx=0;exitDy=0;entryX=1;entryY=0.5;entryDx=0;entryDy=0;" edge="1" parent="5_OHL3jlzMaZgzvaST_B-94" source="5_OHL3jlzMaZgzvaST_B-110" target="5_OHL3jlzMaZgzvaST_B-102">
          <mxGeometry width="160" relative="1" as="geometry">
            <mxPoint x="344.5" y="202" as="sourcePoint" />
            <mxPoint x="344.5" y="150" as="targetPoint" />
          </mxGeometry>
        </mxCell>
        <mxCell id="5_OHL3jlzMaZgzvaST_B-115" value="" style="endArrow=open;endFill=1;endSize=12;html=1;rounded=0;exitX=0;exitY=0.5;exitDx=0;exitDy=0;entryX=0;entryY=0.5;entryDx=0;entryDy=0;" edge="1" parent="WIyWlLk6GJQsqaUBKTNV-1" source="5_OHL3jlzMaZgzvaST_B-51" target="5_OHL3jlzMaZgzvaST_B-102">
          <mxGeometry width="160" relative="1" as="geometry">
            <mxPoint x="160" y="723" as="sourcePoint" />
            <mxPoint x="-140" y="720" as="targetPoint" />
            <Array as="points">
              <mxPoint x="-130" y="713" />
              <mxPoint x="-130" y="1353" />
            </Array>
          </mxGeometry>
        </mxCell>
        <mxCell id="5_OHL3jlzMaZgzvaST_B-126" value="" style="endArrow=block;dashed=1;endFill=0;endSize=12;html=1;rounded=0;" edge="1" parent="WIyWlLk6GJQsqaUBKTNV-1">
          <mxGeometry width="160" relative="1" as="geometry">
            <mxPoint x="476" y="880" as="sourcePoint" />
            <mxPoint x="476" y="830" as="targetPoint" />
          </mxGeometry>
        </mxCell>
        <mxCell id="5_OHL3jlzMaZgzvaST_B-147" value="" style="endArrow=open;endFill=1;endSize=12;html=1;rounded=0;exitX=0.472;exitY=1.007;exitDx=0;exitDy=0;entryX=0.5;entryY=0;entryDx=0;entryDy=0;exitPerimeter=0;" edge="1" parent="WIyWlLk6GJQsqaUBKTNV-1" source="5_OHL3jlzMaZgzvaST_B-125" target="5_OHL3jlzMaZgzvaST_B-98">
          <mxGeometry width="160" relative="1" as="geometry">
            <mxPoint x="590" y="954" as="sourcePoint" />
            <mxPoint x="687" y="754" as="targetPoint" />
            <Array as="points">
              <mxPoint x="444" y="1150" />
              <mxPoint x="23" y="1150" />
            </Array>
          </mxGeometry>
        </mxCell>
        <mxCell id="5_OHL3jlzMaZgzvaST_B-154" value="" style="endArrow=block;endSize=16;endFill=0;html=1;rounded=0;exitX=0.5;exitY=1;exitDx=0;exitDy=0;" edge="1" parent="WIyWlLk6GJQsqaUBKTNV-1" source="5_OHL3jlzMaZgzvaST_B-148">
          <mxGeometry width="160" relative="1" as="geometry">
            <mxPoint x="-310" y="184.5" as="sourcePoint" />
            <mxPoint x="-80" y="200" as="targetPoint" />
            <Array as="points">
              <mxPoint x="-570" y="230" />
              <mxPoint x="-190" y="230" />
              <mxPoint x="-190" y="200" />
            </Array>
          </mxGeometry>
        </mxCell>
        <mxCell id="5_OHL3jlzMaZgzvaST_B-161" value="" style="endArrow=block;endSize=16;endFill=0;html=1;rounded=0;exitX=0.5;exitY=1;exitDx=0;exitDy=0;" edge="1" parent="WIyWlLk6GJQsqaUBKTNV-1" source="5_OHL3jlzMaZgzvaST_B-158">
          <mxGeometry width="160" relative="1" as="geometry">
            <mxPoint x="-320" y="495" as="sourcePoint" />
            <mxPoint x="-82" y="380" as="targetPoint" />
            <Array as="points">
              <mxPoint x="-380" y="380" />
            </Array>
          </mxGeometry>
        </mxCell>
        <mxCell id="5_OHL3jlzMaZgzvaST_B-162" value="" style="endArrow=block;endSize=16;endFill=0;html=1;rounded=0;exitX=0.5;exitY=1;exitDx=0;exitDy=0;" edge="1" parent="WIyWlLk6GJQsqaUBKTNV-1" source="5_OHL3jlzMaZgzvaST_B-155">
          <mxGeometry width="160" relative="1" as="geometry">
            <mxPoint x="-320" y="380" as="sourcePoint" />
            <mxPoint x="-80" y="380" as="targetPoint" />
            <Array as="points">
              <mxPoint x="-570" y="380" />
            </Array>
          </mxGeometry>
        </mxCell>
        <mxCell id="5_OHL3jlzMaZgzvaST_B-170" value="" style="endArrow=block;endSize=16;endFill=0;html=1;rounded=0;entryX=0.5;entryY=0;entryDx=0;entryDy=0;exitX=0.5;exitY=0;exitDx=0;exitDy=0;" edge="1" parent="WIyWlLk6GJQsqaUBKTNV-1" source="5_OHL3jlzMaZgzvaST_B-163" target="5_OHL3jlzMaZgzvaST_B-21">
          <mxGeometry width="160" relative="1" as="geometry">
            <mxPoint x="-310" y="184.5" as="sourcePoint" />
            <mxPoint x="-70" y="205" as="targetPoint" />
            <Array as="points">
              <mxPoint x="-770" y="60" />
              <mxPoint x="410" y="60" />
            </Array>
          </mxGeometry>
        </mxCell>
        <mxCell id="5_OHL3jlzMaZgzvaST_B-178" value="" style="endArrow=block;dashed=1;endFill=0;endSize=12;html=1;rounded=0;exitX=0.497;exitY=1.12;exitDx=0;exitDy=0;exitPerimeter=0;" edge="1" parent="WIyWlLk6GJQsqaUBKTNV-1" source="5_OHL3jlzMaZgzvaST_B-173">
          <mxGeometry width="160" relative="1" as="geometry">
            <mxPoint x="12.5" y="890" as="sourcePoint" />
            <mxPoint x="-80" y="560" as="targetPoint" />
            <Array as="points">
              <mxPoint x="-570" y="560" />
            </Array>
          </mxGeometry>
        </mxCell>
        <mxCell id="5_OHL3jlzMaZgzvaST_B-179" value="" style="endArrow=block;dashed=1;endFill=0;endSize=12;html=1;rounded=0;exitX=0.497;exitY=1.12;exitDx=0;exitDy=0;exitPerimeter=0;" edge="1" parent="WIyWlLk6GJQsqaUBKTNV-1" source="5_OHL3jlzMaZgzvaST_B-176">
          <mxGeometry width="160" relative="1" as="geometry">
            <mxPoint x="-310" y="623" as="sourcePoint" />
            <mxPoint x="-80" y="564" as="targetPoint" />
            <Array as="points">
              <mxPoint x="-380" y="564" />
            </Array>
          </mxGeometry>
        </mxCell>
        <mxCell id="5_OHL3jlzMaZgzvaST_B-153" value="" style="endArrow=block;endSize=16;endFill=0;html=1;rounded=0;entryX=0.023;entryY=-0.253;entryDx=0;entryDy=0;exitX=1;exitY=0.5;exitDx=0;exitDy=0;entryPerimeter=0;" edge="1" parent="WIyWlLk6GJQsqaUBKTNV-1" source="5_OHL3jlzMaZgzvaST_B-151" target="5_OHL3jlzMaZgzvaST_B-4">
          <mxGeometry width="160" relative="1" as="geometry">
            <mxPoint x="-320" y="174.5" as="sourcePoint" />
            <mxPoint x="-160" y="174.5" as="targetPoint" />
            <Array as="points" />
          </mxGeometry>
        </mxCell>
        <mxCell id="5_OHL3jlzMaZgzvaST_B-186" value="" style="endArrow=block;dashed=1;endFill=0;endSize=12;html=1;rounded=0;exitX=1;exitY=0.5;exitDx=0;exitDy=0;entryX=0.01;entryY=0.107;entryDx=0;entryDy=0;entryPerimeter=0;" edge="1" parent="WIyWlLk6GJQsqaUBKTNV-1" source="5_OHL3jlzMaZgzvaST_B-182" target="5_OHL3jlzMaZgzvaST_B-71">
          <mxGeometry width="160" relative="1" as="geometry">
            <mxPoint x="-380" y="522" as="sourcePoint" />
            <mxPoint x="-70" y="574" as="targetPoint" />
            <Array as="points">
              <mxPoint x="-200" y="653" />
              <mxPoint x="-200" y="500" />
            </Array>
          </mxGeometry>
        </mxCell>
        <mxCell id="5_OHL3jlzMaZgzvaST_B-187" value="" style="endArrow=block;dashed=1;endFill=0;endSize=12;html=1;rounded=0;exitX=1;exitY=0.5;exitDx=0;exitDy=0;" edge="1" parent="WIyWlLk6GJQsqaUBKTNV-1" source="5_OHL3jlzMaZgzvaST_B-185">
          <mxGeometry width="160" relative="1" as="geometry">
            <mxPoint x="-310" y="663" as="sourcePoint" />
            <mxPoint x="340" y="500" as="targetPoint" />
            <Array as="points">
              <mxPoint x="-200" y="753" />
              <mxPoint x="-200" y="500" />
            </Array>
          </mxGeometry>
        </mxCell>
        <mxCell id="5_OHL3jlzMaZgzvaST_B-198" value="" style="endArrow=open;endFill=1;endSize=12;html=1;rounded=0;exitX=0.48;exitY=1.013;exitDx=0;exitDy=0;exitPerimeter=0;entryX=0.418;entryY=1.173;entryDx=0;entryDy=0;entryPerimeter=0;" edge="1" parent="WIyWlLk6GJQsqaUBKTNV-1" source="5_OHL3jlzMaZgzvaST_B-197" target="5_OHL3jlzMaZgzvaST_B-125">
          <mxGeometry width="160" relative="1" as="geometry">
            <mxPoint x="-600" y="530" as="sourcePoint" />
            <mxPoint x="-550" y="930" as="targetPoint" />
            <Array as="points">
              <mxPoint x="-630" y="1130" />
              <mxPoint x="432" y="1130" />
            </Array>
          </mxGeometry>
        </mxCell>
        <mxCell id="5_OHL3jlzMaZgzvaST_B-236" value="" style="endArrow=open;endFill=1;endSize=12;html=1;rounded=0;exitX=1;exitY=0.5;exitDx=0;exitDy=0;" edge="1" parent="WIyWlLk6GJQsqaUBKTNV-1" source="5_OHL3jlzMaZgzvaST_B-228">
          <mxGeometry width="160" relative="1" as="geometry">
            <mxPoint x="-870" y="663" as="sourcePoint" />
            <mxPoint x="-700" y="670" as="targetPoint" />
            <Array as="points" />
          </mxGeometry>
        </mxCell>
        <mxCell id="5_OHL3jlzMaZgzvaST_B-237" value="" style="endArrow=open;endFill=1;endSize=12;html=1;rounded=0;exitX=1;exitY=0.5;exitDx=0;exitDy=0;" edge="1" parent="WIyWlLk6GJQsqaUBKTNV-1" source="5_OHL3jlzMaZgzvaST_B-231">
          <mxGeometry width="160" relative="1" as="geometry">
            <mxPoint x="-860" y="673" as="sourcePoint" />
            <mxPoint x="-700" y="690" as="targetPoint" />
            <Array as="points" />
          </mxGeometry>
        </mxCell>
        <mxCell id="5_OHL3jlzMaZgzvaST_B-238" value="" style="endArrow=open;endFill=1;endSize=12;html=1;rounded=0;exitX=1;exitY=0.5;exitDx=0;exitDy=0;" edge="1" parent="WIyWlLk6GJQsqaUBKTNV-1" source="5_OHL3jlzMaZgzvaST_B-234">
          <mxGeometry width="160" relative="1" as="geometry">
            <mxPoint x="-850" y="683" as="sourcePoint" />
            <mxPoint x="-700" y="710" as="targetPoint" />
            <Array as="points" />
          </mxGeometry>
        </mxCell>
        <mxCell id="5_OHL3jlzMaZgzvaST_B-240" value="" style="endArrow=block;dashed=1;endFill=0;endSize=12;html=1;rounded=0;exitX=0;exitY=0.5;exitDx=0;exitDy=0;" edge="1" parent="WIyWlLk6GJQsqaUBKTNV-1" source="5_OHL3jlzMaZgzvaST_B-199">
          <mxGeometry width="160" relative="1" as="geometry">
            <mxPoint x="-1090" y="210" as="sourcePoint" />
            <mxPoint x="730" y="480" as="targetPoint" />
            <Array as="points">
              <mxPoint x="-1090" y="190" />
              <mxPoint x="-1090" y="20" />
              <mxPoint x="-80" y="20" />
              <mxPoint x="860" y="20" />
              <mxPoint x="860" y="480" />
            </Array>
          </mxGeometry>
        </mxCell>
        <mxCell id="5_OHL3jlzMaZgzvaST_B-239" value="" style="endArrow=block;dashed=1;endFill=0;endSize=12;html=1;rounded=0;entryX=1;entryY=0.5;entryDx=0;entryDy=0;exitX=0;exitY=0.5;exitDx=0;exitDy=0;" edge="1" parent="WIyWlLk6GJQsqaUBKTNV-1" source="5_OHL3jlzMaZgzvaST_B-213" target="5_OHL3jlzMaZgzvaST_B-136">
          <mxGeometry width="160" relative="1" as="geometry">
            <mxPoint x="-1100" y="200" as="sourcePoint" />
            <mxPoint x="800" y="-70" as="targetPoint" />
            <Array as="points">
              <mxPoint x="-1090" y="335" />
              <mxPoint x="-1090" y="20" />
              <mxPoint x="860" y="20" />
              <mxPoint x="860" y="480" />
            </Array>
          </mxGeometry>
        </mxCell>
        <mxCell id="5_OHL3jlzMaZgzvaST_B-241" value="" style="endArrow=block;dashed=1;endFill=0;endSize=12;html=1;rounded=0;entryX=1;entryY=0.5;entryDx=0;entryDy=0;exitX=0;exitY=0.5;exitDx=0;exitDy=0;" edge="1" parent="WIyWlLk6GJQsqaUBKTNV-1" source="5_OHL3jlzMaZgzvaST_B-214" target="5_OHL3jlzMaZgzvaST_B-136">
          <mxGeometry width="160" relative="1" as="geometry">
            <mxPoint x="-1050" y="345" as="sourcePoint" />
            <mxPoint x="740" y="491" as="targetPoint" />
            <Array as="points">
              <mxPoint x="-1090" y="410" />
              <mxPoint x="-1090" y="20" />
              <mxPoint x="-80" y="20" />
              <mxPoint x="860" y="20" />
              <mxPoint x="860" y="480" />
            </Array>
          </mxGeometry>
        </mxCell>
        <mxCell id="5_OHL3jlzMaZgzvaST_B-242" value="" style="endArrow=block;dashed=1;endFill=0;endSize=12;html=1;rounded=0;exitX=0;exitY=0.5;exitDx=0;exitDy=0;" edge="1" parent="WIyWlLk6GJQsqaUBKTNV-1" source="5_OHL3jlzMaZgzvaST_B-220">
          <mxGeometry width="160" relative="1" as="geometry">
            <mxPoint x="-1050" y="420" as="sourcePoint" />
            <mxPoint x="730" y="480" as="targetPoint" />
            <Array as="points">
              <mxPoint x="-1090" y="525" />
              <mxPoint x="-1090" y="20" />
              <mxPoint x="860" y="20" />
              <mxPoint x="860" y="480" />
            </Array>
          </mxGeometry>
        </mxCell>
        <mxCell id="5_OHL3jlzMaZgzvaST_B-243" value="" style="endArrow=block;dashed=1;endFill=0;endSize=12;html=1;rounded=0;exitX=0;exitY=0.5;exitDx=0;exitDy=0;entryX=0.5;entryY=0;entryDx=0;entryDy=0;" edge="1" parent="WIyWlLk6GJQsqaUBKTNV-1" source="5_OHL3jlzMaZgzvaST_B-225" target="5_OHL3jlzMaZgzvaST_B-26">
          <mxGeometry width="160" relative="1" as="geometry">
            <mxPoint x="-1370" y="410" as="sourcePoint" />
            <mxPoint x="-50" y="50" as="targetPoint" />
            <Array as="points">
              <mxPoint x="-1120" y="653" />
              <mxPoint x="-1120" />
              <mxPoint x="520" />
              <mxPoint x="660" />
            </Array>
          </mxGeometry>
        </mxCell>
        <mxCell id="5_OHL3jlzMaZgzvaST_B-244" value="" style="endArrow=block;dashed=1;endFill=0;endSize=12;html=1;rounded=0;exitX=0;exitY=0.5;exitDx=0;exitDy=0;" edge="1" parent="WIyWlLk6GJQsqaUBKTNV-1" source="5_OHL3jlzMaZgzvaST_B-228">
          <mxGeometry width="160" relative="1" as="geometry">
            <mxPoint x="-1050" y="663" as="sourcePoint" />
            <mxPoint x="660" y="140" as="targetPoint" />
            <Array as="points">
              <mxPoint x="-1120" y="735" />
              <mxPoint x="-1120" />
              <mxPoint x="660" />
            </Array>
          </mxGeometry>
        </mxCell>
        <mxCell id="5_OHL3jlzMaZgzvaST_B-245" value="" style="endArrow=block;dashed=1;endFill=0;endSize=12;html=1;rounded=0;exitX=0;exitY=0.5;exitDx=0;exitDy=0;" edge="1" parent="WIyWlLk6GJQsqaUBKTNV-1" source="5_OHL3jlzMaZgzvaST_B-231">
          <mxGeometry width="160" relative="1" as="geometry">
            <mxPoint x="-1050" y="745" as="sourcePoint" />
            <mxPoint x="660" y="140" as="targetPoint" />
            <Array as="points">
              <mxPoint x="-1120" y="815" />
              <mxPoint x="-1120" />
              <mxPoint x="660" />
            </Array>
          </mxGeometry>
        </mxCell>
        <mxCell id="5_OHL3jlzMaZgzvaST_B-246" value="" style="endArrow=block;dashed=1;endFill=0;endSize=12;html=1;rounded=0;exitX=0;exitY=0.5;exitDx=0;exitDy=0;" edge="1" parent="WIyWlLk6GJQsqaUBKTNV-1" source="5_OHL3jlzMaZgzvaST_B-234">
          <mxGeometry width="160" relative="1" as="geometry">
            <mxPoint x="-1050" y="825" as="sourcePoint" />
            <mxPoint x="660" y="140" as="targetPoint" />
            <Array as="points">
              <mxPoint x="-1120" y="895" />
              <mxPoint x="-1120" />
              <mxPoint x="660" />
            </Array>
          </mxGeometry>
        </mxCell>
        <mxCell id="5_OHL3jlzMaZgzvaST_B-267" value="" style="endArrow=open;endFill=1;endSize=12;html=1;rounded=0;fontFamily=Helvetica;fontSize=12;fontColor=default;fontStyle=1;resizable=1;exitX=0.5;exitY=0;exitDx=0;exitDy=0;entryX=0.276;entryY=1.007;entryDx=0;entryDy=0;entryPerimeter=0;" edge="1" parent="WIyWlLk6GJQsqaUBKTNV-1" source="5_OHL3jlzMaZgzvaST_B-259" target="5_OHL3jlzMaZgzvaST_B-125">
          <mxGeometry width="160" relative="1" as="geometry">
            <mxPoint x="-980" y="1200" as="sourcePoint" />
            <mxPoint x="430" y="1010" as="targetPoint" />
            <Array as="points">
              <mxPoint x="-635" y="1140" />
              <mxPoint x="400" y="1140" />
            </Array>
          </mxGeometry>
        </mxCell>
        <mxCell id="5_OHL3jlzMaZgzvaST_B-268" value="BronzeMonthlyInterestCalculatorStrategy" style="swimlane;fontStyle=0;childLayout=stackLayout;horizontal=1;startSize=30;horizontalStack=0;resizeParent=1;resizeParentMax=0;resizeLast=0;collapsible=1;marginBottom=0;whiteSpace=wrap;html=1;" vertex="1" parent="WIyWlLk6GJQsqaUBKTNV-1">
          <mxGeometry x="-540" y="1420" width="227" height="68" as="geometry" />
        </mxCell>
        <mxCell id="5_OHL3jlzMaZgzvaST_B-269" value="" style="line;strokeWidth=1;fillColor=none;align=left;verticalAlign=middle;spacingTop=-1;spacingLeft=3;spacingRight=3;rotatable=0;labelPosition=right;points=[];portConstraint=eastwest;strokeColor=inherit;" vertex="1" parent="5_OHL3jlzMaZgzvaST_B-268">
          <mxGeometry y="30" width="227" height="8" as="geometry" />
        </mxCell>
        <mxCell id="5_OHL3jlzMaZgzvaST_B-270" value="+calculateInterest()" style="text;strokeColor=none;fillColor=none;align=left;verticalAlign=middle;spacingLeft=4;spacingRight=4;overflow=hidden;points=[[0,0.5],[1,0.5]];portConstraint=eastwest;rotatable=0;whiteSpace=wrap;html=1;" vertex="1" parent="5_OHL3jlzMaZgzvaST_B-268">
          <mxGeometry y="38" width="227" height="30" as="geometry" />
        </mxCell>
        <mxCell id="5_OHL3jlzMaZgzvaST_B-287" value="" style="endArrow=block;dashed=1;endFill=0;endSize=12;html=1;rounded=0;fontFamily=Helvetica;fontSize=12;fontColor=default;fontStyle=1;resizable=1;exitX=1;exitY=0.5;exitDx=0;exitDy=0;" edge="1" parent="WIyWlLk6GJQsqaUBKTNV-1" source="5_OHL3jlzMaZgzvaST_B-273">
          <mxGeometry width="160" relative="1" as="geometry">
            <mxPoint x="-303" y="1470" as="sourcePoint" />
            <mxPoint x="340" y="510" as="targetPoint" />
            <Array as="points">
              <mxPoint x="-190" y="1563" />
              <mxPoint x="-190" y="510" />
            </Array>
          </mxGeometry>
        </mxCell>
        <mxCell id="5_OHL3jlzMaZgzvaST_B-288" value="" style="endArrow=block;dashed=1;endFill=0;endSize=12;html=1;rounded=0;fontFamily=Helvetica;fontSize=12;fontColor=default;fontStyle=1;resizable=1;exitX=1;exitY=0.5;exitDx=0;exitDy=0;" edge="1" parent="WIyWlLk6GJQsqaUBKTNV-1" source="5_OHL3jlzMaZgzvaST_B-276">
          <mxGeometry width="160" relative="1" as="geometry">
            <mxPoint x="-303" y="1573" as="sourcePoint" />
            <mxPoint x="340" y="510" as="targetPoint" />
            <Array as="points">
              <mxPoint x="-190" y="1653" />
              <mxPoint x="-190" y="510" />
            </Array>
          </mxGeometry>
        </mxCell>
        <mxCell id="5_OHL3jlzMaZgzvaST_B-289" value="" style="endArrow=block;dashed=1;endFill=0;endSize=12;html=1;rounded=0;fontFamily=Helvetica;fontSize=12;fontColor=default;fontStyle=1;resizable=1;exitX=1;exitY=0.5;exitDx=0;exitDy=0;entryX=0;entryY=0.5;entryDx=0;entryDy=0;" edge="1" parent="WIyWlLk6GJQsqaUBKTNV-1" source="5_OHL3jlzMaZgzvaST_B-285" target="5_OHL3jlzMaZgzvaST_B-76">
          <mxGeometry width="160" relative="1" as="geometry">
            <mxPoint x="-303" y="1663" as="sourcePoint" />
            <mxPoint x="350" y="520" as="targetPoint" />
            <Array as="points">
              <mxPoint x="-170" y="1763" />
              <mxPoint x="-170" y="640" />
            </Array>
          </mxGeometry>
        </mxCell>
        <mxCell id="5_OHL3jlzMaZgzvaST_B-290" value="" style="endArrow=block;dashed=1;endFill=0;endSize=12;html=1;rounded=0;fontFamily=Helvetica;fontSize=12;fontColor=default;fontStyle=1;resizable=1;exitX=0.481;exitY=1.127;exitDx=0;exitDy=0;exitPerimeter=0;" edge="1" parent="WIyWlLk6GJQsqaUBKTNV-1" source="5_OHL3jlzMaZgzvaST_B-282">
          <mxGeometry width="160" relative="1" as="geometry">
            <mxPoint x="-303" y="1773" as="sourcePoint" />
            <mxPoint x="340" y="640" as="targetPoint" />
            <Array as="points">
              <mxPoint x="-701" y="1820" />
              <mxPoint x="-170" y="1820" />
              <mxPoint x="-170" y="640" />
            </Array>
          </mxGeometry>
        </mxCell>
        <mxCell id="5_OHL3jlzMaZgzvaST_B-291" value="" style="endArrow=block;dashed=1;endFill=0;endSize=12;html=1;rounded=0;fontFamily=Helvetica;fontSize=12;fontColor=default;fontStyle=1;resizable=1;exitX=0.462;exitY=1.073;exitDx=0;exitDy=0;exitPerimeter=0;" edge="1" parent="WIyWlLk6GJQsqaUBKTNV-1" source="5_OHL3jlzMaZgzvaST_B-279">
          <mxGeometry width="160" relative="1" as="geometry">
            <mxPoint x="-303" y="1863" as="sourcePoint" />
            <mxPoint x="340" y="640" as="targetPoint" />
            <Array as="points">
              <mxPoint x="-975" y="1820" />
              <mxPoint x="-170" y="1820" />
              <mxPoint x="-170" y="640" />
            </Array>
          </mxGeometry>
        </mxCell>
        <mxCell id="5_OHL3jlzMaZgzvaST_B-295" value="" style="endArrow=block;dashed=1;endFill=0;endSize=12;html=1;rounded=0;fontFamily=Helvetica;fontSize=12;fontColor=default;fontStyle=1;resizable=1;exitX=0.5;exitY=0;exitDx=0;exitDy=0;entryX=0;entryY=0.5;entryDx=0;entryDy=0;" edge="1" parent="WIyWlLk6GJQsqaUBKTNV-1" source="5_OHL3jlzMaZgzvaST_B-292" target="5_OHL3jlzMaZgzvaST_B-45">
          <mxGeometry width="160" relative="1" as="geometry">
            <mxPoint x="-890" y="1130" as="sourcePoint" />
            <mxPoint x="-730" y="1130" as="targetPoint" />
            <Array as="points">
              <mxPoint x="-860" y="1080" />
              <mxPoint x="-240" y="1080" />
              <mxPoint x="-240" y="593" />
            </Array>
          </mxGeometry>
        </mxCell>
        <mxCell id="5_OHL3jlzMaZgzvaST_B-305" value="" style="endArrow=block;dashed=1;endFill=0;endSize=12;html=1;rounded=0;exitX=0;exitY=0.5;exitDx=0;exitDy=0;" edge="1" parent="WIyWlLk6GJQsqaUBKTNV-1" source="5_OHL3jlzMaZgzvaST_B-302">
          <mxGeometry width="160" relative="1" as="geometry">
            <mxPoint x="-1050" y="905" as="sourcePoint" />
            <mxPoint x="660" y="140" as="targetPoint" />
            <Array as="points">
              <mxPoint x="-1200" y="1605" />
              <mxPoint x="-1200" />
              <mxPoint x="660" />
            </Array>
          </mxGeometry>
        </mxCell>
        <mxCell id="5_OHL3jlzMaZgzvaST_B-1" value="Banking System" style="swimlane;whiteSpace=wrap;html=1;movable=1;resizable=1;rotatable=1;deletable=1;editable=1;locked=0;connectable=1;fillColor=#B3FF66;strokeColor=#00FF00;" vertex="1" parent="WIyWlLk6GJQsqaUBKTNV-1">
          <mxGeometry x="-1150" y="100" width="880" height="830" as="geometry" />
        </mxCell>
        <mxCell id="5_OHL3jlzMaZgzvaST_B-148" value="CheckingAccount" style="swimlane;fontStyle=0;childLayout=stackLayout;horizontal=1;startSize=30;horizontalStack=0;resizeParent=1;resizeParentMax=0;resizeLast=0;collapsible=1;marginBottom=0;whiteSpace=wrap;html=1;" vertex="1" parent="5_OHL3jlzMaZgzvaST_B-1">
          <mxGeometry x="510" y="40" width="140" height="70" as="geometry" />
        </mxCell>
        <mxCell id="5_OHL3jlzMaZgzvaST_B-150" value="" style="line;strokeWidth=1;fillColor=none;align=left;verticalAlign=middle;spacingTop=-1;spacingLeft=3;spacingRight=3;rotatable=0;labelPosition=right;points=[];portConstraint=eastwest;strokeColor=inherit;" vertex="1" parent="5_OHL3jlzMaZgzvaST_B-148">
          <mxGeometry y="30" width="140" height="40" as="geometry" />
        </mxCell>
        <mxCell id="5_OHL3jlzMaZgzvaST_B-151" value="SavingAccount" style="swimlane;fontStyle=0;childLayout=stackLayout;horizontal=1;startSize=30;horizontalStack=0;resizeParent=1;resizeParentMax=0;resizeLast=0;collapsible=1;marginBottom=0;whiteSpace=wrap;html=1;" vertex="1" parent="5_OHL3jlzMaZgzvaST_B-1">
          <mxGeometry x="700" y="40" width="140" height="70" as="geometry" />
        </mxCell>
        <mxCell id="5_OHL3jlzMaZgzvaST_B-152" value="" style="line;strokeWidth=1;fillColor=none;align=left;verticalAlign=middle;spacingTop=-1;spacingLeft=3;spacingRight=3;rotatable=0;labelPosition=right;points=[];portConstraint=eastwest;strokeColor=inherit;" vertex="1" parent="5_OHL3jlzMaZgzvaST_B-151">
          <mxGeometry y="30" width="140" height="40" as="geometry" />
        </mxCell>
        <mxCell id="5_OHL3jlzMaZgzvaST_B-155" value="Company" style="swimlane;fontStyle=0;childLayout=stackLayout;horizontal=1;startSize=30;horizontalStack=0;resizeParent=1;resizeParentMax=0;resizeLast=0;collapsible=1;marginBottom=0;whiteSpace=wrap;html=1;" vertex="1" parent="5_OHL3jlzMaZgzvaST_B-1">
          <mxGeometry x="510" y="170" width="140" height="80" as="geometry" />
        </mxCell>
        <mxCell id="5_OHL3jlzMaZgzvaST_B-157" value="+numberOfEmployees" style="text;strokeColor=none;fillColor=none;align=left;verticalAlign=middle;spacingLeft=4;spacingRight=4;overflow=hidden;points=[[0,0.5],[1,0.5]];portConstraint=eastwest;rotatable=0;whiteSpace=wrap;html=1;" vertex="1" parent="5_OHL3jlzMaZgzvaST_B-155">
          <mxGeometry y="30" width="140" height="30" as="geometry" />
        </mxCell>
        <mxCell id="5_OHL3jlzMaZgzvaST_B-156" value="" style="line;strokeWidth=1;fillColor=none;align=left;verticalAlign=middle;spacingTop=-1;spacingLeft=3;spacingRight=3;rotatable=0;labelPosition=right;points=[];portConstraint=eastwest;strokeColor=inherit;" vertex="1" parent="5_OHL3jlzMaZgzvaST_B-155">
          <mxGeometry y="60" width="140" height="20" as="geometry" />
        </mxCell>
        <mxCell id="5_OHL3jlzMaZgzvaST_B-158" value="Person" style="swimlane;fontStyle=0;childLayout=stackLayout;horizontal=1;startSize=30;horizontalStack=0;resizeParent=1;resizeParentMax=0;resizeLast=0;collapsible=1;marginBottom=0;whiteSpace=wrap;html=1;" vertex="1" parent="5_OHL3jlzMaZgzvaST_B-1">
          <mxGeometry x="700" y="170" width="140" height="80" as="geometry" />
        </mxCell>
        <mxCell id="5_OHL3jlzMaZgzvaST_B-159" value="+dateOfBirth" style="text;strokeColor=none;fillColor=none;align=left;verticalAlign=middle;spacingLeft=4;spacingRight=4;overflow=hidden;points=[[0,0.5],[1,0.5]];portConstraint=eastwest;rotatable=0;whiteSpace=wrap;html=1;" vertex="1" parent="5_OHL3jlzMaZgzvaST_B-158">
          <mxGeometry y="30" width="140" height="30" as="geometry" />
        </mxCell>
        <mxCell id="5_OHL3jlzMaZgzvaST_B-160" value="" style="line;strokeWidth=1;fillColor=none;align=left;verticalAlign=middle;spacingTop=-1;spacingLeft=3;spacingRight=3;rotatable=0;labelPosition=right;points=[];portConstraint=eastwest;strokeColor=inherit;" vertex="1" parent="5_OHL3jlzMaZgzvaST_B-158">
          <mxGeometry y="60" width="140" height="20" as="geometry" />
        </mxCell>
        <mxCell id="5_OHL3jlzMaZgzvaST_B-163" value="BankingAccountReport" style="swimlane;fontStyle=0;childLayout=stackLayout;horizontal=1;startSize=30;horizontalStack=0;resizeParent=1;resizeParentMax=0;resizeLast=0;collapsible=1;marginBottom=0;whiteSpace=wrap;html=1;" vertex="1" parent="5_OHL3jlzMaZgzvaST_B-1">
          <mxGeometry x="310" y="40" width="140" height="158" as="geometry" />
        </mxCell>
        <mxCell id="5_OHL3jlzMaZgzvaST_B-164" value="+amount" style="text;strokeColor=none;fillColor=none;align=left;verticalAlign=middle;spacingLeft=4;spacingRight=4;overflow=hidden;points=[[0,0.5],[1,0.5]];portConstraint=eastwest;rotatable=0;whiteSpace=wrap;html=1;" vertex="1" parent="5_OHL3jlzMaZgzvaST_B-163">
          <mxGeometry y="30" width="140" height="30" as="geometry" />
        </mxCell>
        <mxCell id="5_OHL3jlzMaZgzvaST_B-165" value="+transactionType" style="text;strokeColor=none;fillColor=none;align=left;verticalAlign=middle;spacingLeft=4;spacingRight=4;overflow=hidden;points=[[0,0.5],[1,0.5]];portConstraint=eastwest;rotatable=0;whiteSpace=wrap;html=1;" vertex="1" parent="5_OHL3jlzMaZgzvaST_B-163">
          <mxGeometry y="60" width="140" height="30" as="geometry" />
        </mxCell>
        <mxCell id="5_OHL3jlzMaZgzvaST_B-166" value="+description" style="text;strokeColor=none;fillColor=none;align=left;verticalAlign=middle;spacingLeft=4;spacingRight=4;overflow=hidden;points=[[0,0.5],[1,0.5]];portConstraint=eastwest;rotatable=0;whiteSpace=wrap;html=1;" vertex="1" parent="5_OHL3jlzMaZgzvaST_B-163">
          <mxGeometry y="90" width="140" height="30" as="geometry" />
        </mxCell>
        <mxCell id="5_OHL3jlzMaZgzvaST_B-167" value="+dateAction" style="text;strokeColor=none;fillColor=none;align=left;verticalAlign=middle;spacingLeft=4;spacingRight=4;overflow=hidden;points=[[0,0.5],[1,0.5]];portConstraint=eastwest;rotatable=0;whiteSpace=wrap;html=1;" vertex="1" parent="5_OHL3jlzMaZgzvaST_B-163">
          <mxGeometry y="120" width="140" height="30" as="geometry" />
        </mxCell>
        <mxCell id="5_OHL3jlzMaZgzvaST_B-168" value="" style="line;strokeWidth=1;fillColor=none;align=left;verticalAlign=middle;spacingTop=-1;spacingLeft=3;spacingRight=3;rotatable=0;labelPosition=right;points=[];portConstraint=eastwest;strokeColor=inherit;" vertex="1" parent="5_OHL3jlzMaZgzvaST_B-163">
          <mxGeometry y="150" width="140" height="8" as="geometry" />
        </mxCell>
        <mxCell id="5_OHL3jlzMaZgzvaST_B-171" value="&lt;div&gt;CheckingAccountFactory&lt;/div&gt;" style="swimlane;fontStyle=0;childLayout=stackLayout;horizontal=1;startSize=30;horizontalStack=0;resizeParent=1;resizeParentMax=0;resizeLast=0;collapsible=1;marginBottom=0;whiteSpace=wrap;html=1;" vertex="1" parent="5_OHL3jlzMaZgzvaST_B-1">
          <mxGeometry x="510" y="340" width="140" height="68" as="geometry" />
        </mxCell>
        <mxCell id="5_OHL3jlzMaZgzvaST_B-172" value="" style="line;strokeWidth=1;fillColor=none;align=left;verticalAlign=middle;spacingTop=-1;spacingLeft=3;spacingRight=3;rotatable=0;labelPosition=right;points=[];portConstraint=eastwest;strokeColor=inherit;" vertex="1" parent="5_OHL3jlzMaZgzvaST_B-171">
          <mxGeometry y="30" width="140" height="8" as="geometry" />
        </mxCell>
        <mxCell id="5_OHL3jlzMaZgzvaST_B-173" value="+createAccount()" style="text;strokeColor=none;fillColor=none;align=left;verticalAlign=middle;spacingLeft=4;spacingRight=4;overflow=hidden;points=[[0,0.5],[1,0.5]];portConstraint=eastwest;rotatable=0;whiteSpace=wrap;html=1;" vertex="1" parent="5_OHL3jlzMaZgzvaST_B-171">
          <mxGeometry y="38" width="140" height="30" as="geometry" />
        </mxCell>
        <mxCell id="5_OHL3jlzMaZgzvaST_B-174" value="&lt;div&gt;SavingAccountFactory&lt;/div&gt;" style="swimlane;fontStyle=0;childLayout=stackLayout;horizontal=1;startSize=30;horizontalStack=0;resizeParent=1;resizeParentMax=0;resizeLast=0;collapsible=1;marginBottom=0;whiteSpace=wrap;html=1;" vertex="1" parent="5_OHL3jlzMaZgzvaST_B-1">
          <mxGeometry x="700" y="340" width="140" height="68" as="geometry" />
        </mxCell>
        <mxCell id="5_OHL3jlzMaZgzvaST_B-175" value="" style="line;strokeWidth=1;fillColor=none;align=left;verticalAlign=middle;spacingTop=-1;spacingLeft=3;spacingRight=3;rotatable=0;labelPosition=right;points=[];portConstraint=eastwest;strokeColor=inherit;" vertex="1" parent="5_OHL3jlzMaZgzvaST_B-174">
          <mxGeometry y="30" width="140" height="8" as="geometry" />
        </mxCell>
        <mxCell id="5_OHL3jlzMaZgzvaST_B-176" value="+createAccount()" style="text;strokeColor=none;fillColor=none;align=left;verticalAlign=middle;spacingLeft=4;spacingRight=4;overflow=hidden;points=[[0,0.5],[1,0.5]];portConstraint=eastwest;rotatable=0;whiteSpace=wrap;html=1;" vertex="1" parent="5_OHL3jlzMaZgzvaST_B-174">
          <mxGeometry y="38" width="140" height="30" as="geometry" />
        </mxCell>
        <mxCell id="5_OHL3jlzMaZgzvaST_B-180" value="CheckingInterestCalculatorStrategy" style="swimlane;fontStyle=0;childLayout=stackLayout;horizontal=1;startSize=30;horizontalStack=0;resizeParent=1;resizeParentMax=0;resizeLast=0;collapsible=1;marginBottom=0;whiteSpace=wrap;html=1;" vertex="1" parent="5_OHL3jlzMaZgzvaST_B-1">
          <mxGeometry x="637" y="500" width="200" height="68" as="geometry" />
        </mxCell>
        <mxCell id="5_OHL3jlzMaZgzvaST_B-181" value="" style="line;strokeWidth=1;fillColor=none;align=left;verticalAlign=middle;spacingTop=-1;spacingLeft=3;spacingRight=3;rotatable=0;labelPosition=right;points=[];portConstraint=eastwest;strokeColor=inherit;" vertex="1" parent="5_OHL3jlzMaZgzvaST_B-180">
          <mxGeometry y="30" width="200" height="8" as="geometry" />
        </mxCell>
        <mxCell id="5_OHL3jlzMaZgzvaST_B-182" value="+calculateInterest()" style="text;strokeColor=none;fillColor=none;align=left;verticalAlign=middle;spacingLeft=4;spacingRight=4;overflow=hidden;points=[[0,0.5],[1,0.5]];portConstraint=eastwest;rotatable=0;whiteSpace=wrap;html=1;" vertex="1" parent="5_OHL3jlzMaZgzvaST_B-180">
          <mxGeometry y="38" width="200" height="30" as="geometry" />
        </mxCell>
        <mxCell id="5_OHL3jlzMaZgzvaST_B-183" value="SavingInterestCalculatorStrategy" style="swimlane;fontStyle=0;childLayout=stackLayout;horizontal=1;startSize=30;horizontalStack=0;resizeParent=1;resizeParentMax=0;resizeLast=0;collapsible=1;marginBottom=0;whiteSpace=wrap;html=1;" vertex="1" parent="5_OHL3jlzMaZgzvaST_B-1">
          <mxGeometry x="637" y="600" width="200" height="68" as="geometry" />
        </mxCell>
        <mxCell id="5_OHL3jlzMaZgzvaST_B-184" value="" style="line;strokeWidth=1;fillColor=none;align=left;verticalAlign=middle;spacingTop=-1;spacingLeft=3;spacingRight=3;rotatable=0;labelPosition=right;points=[];portConstraint=eastwest;strokeColor=inherit;" vertex="1" parent="5_OHL3jlzMaZgzvaST_B-183">
          <mxGeometry y="30" width="200" height="8" as="geometry" />
        </mxCell>
        <mxCell id="5_OHL3jlzMaZgzvaST_B-185" value="+calculateInterest()" style="text;strokeColor=none;fillColor=none;align=left;verticalAlign=middle;spacingLeft=4;spacingRight=4;overflow=hidden;points=[[0,0.5],[1,0.5]];portConstraint=eastwest;rotatable=0;whiteSpace=wrap;html=1;" vertex="1" parent="5_OHL3jlzMaZgzvaST_B-183">
          <mxGeometry y="38" width="200" height="30" as="geometry" />
        </mxCell>
        <mxCell id="5_OHL3jlzMaZgzvaST_B-188" value="BankService" style="swimlane;fontStyle=0;childLayout=stackLayout;horizontal=1;startSize=30;horizontalStack=0;resizeParent=1;resizeParentMax=0;resizeLast=0;collapsible=1;marginBottom=0;whiteSpace=wrap;html=1;" vertex="1" parent="5_OHL3jlzMaZgzvaST_B-1">
          <mxGeometry x="450" y="510" width="140" height="188" as="geometry" />
        </mxCell>
        <mxCell id="5_OHL3jlzMaZgzvaST_B-193" value="" style="line;strokeWidth=1;fillColor=none;align=left;verticalAlign=middle;spacingTop=-1;spacingLeft=3;spacingRight=3;rotatable=0;labelPosition=right;points=[];portConstraint=eastwest;strokeColor=inherit;" vertex="1" parent="5_OHL3jlzMaZgzvaST_B-188">
          <mxGeometry y="30" width="140" height="8" as="geometry" />
        </mxCell>
        <mxCell id="5_OHL3jlzMaZgzvaST_B-190" value="+createAccount()" style="text;strokeColor=none;fillColor=none;align=left;verticalAlign=middle;spacingLeft=4;spacingRight=4;overflow=hidden;points=[[0,0.5],[1,0.5]];portConstraint=eastwest;rotatable=0;whiteSpace=wrap;html=1;" vertex="1" parent="5_OHL3jlzMaZgzvaST_B-188">
          <mxGeometry y="38" width="140" height="30" as="geometry" />
        </mxCell>
        <mxCell id="5_OHL3jlzMaZgzvaST_B-195" value="+deposit()" style="text;strokeColor=none;fillColor=none;align=left;verticalAlign=middle;spacingLeft=4;spacingRight=4;overflow=hidden;points=[[0,0.5],[1,0.5]];portConstraint=eastwest;rotatable=0;whiteSpace=wrap;html=1;" vertex="1" parent="5_OHL3jlzMaZgzvaST_B-188">
          <mxGeometry y="68" width="140" height="30" as="geometry" />
        </mxCell>
        <mxCell id="5_OHL3jlzMaZgzvaST_B-196" value="+withdraw()" style="text;strokeColor=none;fillColor=none;align=left;verticalAlign=middle;spacingLeft=4;spacingRight=4;overflow=hidden;points=[[0,0.5],[1,0.5]];portConstraint=eastwest;rotatable=0;whiteSpace=wrap;html=1;" vertex="1" parent="5_OHL3jlzMaZgzvaST_B-188">
          <mxGeometry y="98" width="140" height="30" as="geometry" />
        </mxCell>
        <mxCell id="5_OHL3jlzMaZgzvaST_B-194" value="+addInterest()" style="text;strokeColor=none;fillColor=none;align=left;verticalAlign=middle;spacingLeft=4;spacingRight=4;overflow=hidden;points=[[0,0.5],[1,0.5]];portConstraint=eastwest;rotatable=0;whiteSpace=wrap;html=1;" vertex="1" parent="5_OHL3jlzMaZgzvaST_B-188">
          <mxGeometry y="128" width="140" height="30" as="geometry" />
        </mxCell>
        <mxCell id="5_OHL3jlzMaZgzvaST_B-197" value="+reportAccountHistory()" style="text;strokeColor=none;fillColor=none;align=left;verticalAlign=middle;spacingLeft=4;spacingRight=4;overflow=hidden;points=[[0,0.5],[1,0.5]];portConstraint=eastwest;rotatable=0;whiteSpace=wrap;html=1;" vertex="1" parent="5_OHL3jlzMaZgzvaST_B-188">
          <mxGeometry y="158" width="140" height="30" as="geometry" />
        </mxCell>
        <mxCell id="5_OHL3jlzMaZgzvaST_B-199" value="CompanyDepositRule" style="swimlane;fontStyle=0;childLayout=stackLayout;horizontal=1;startSize=30;horizontalStack=0;resizeParent=1;resizeParentMax=0;resizeLast=0;collapsible=1;marginBottom=0;whiteSpace=wrap;html=1;" vertex="1" parent="5_OHL3jlzMaZgzvaST_B-1">
          <mxGeometry x="90" y="40" width="140" height="100" as="geometry" />
        </mxCell>
        <mxCell id="5_OHL3jlzMaZgzvaST_B-204" value="" style="line;strokeWidth=1;fillColor=none;align=left;verticalAlign=middle;spacingTop=-1;spacingLeft=3;spacingRight=3;rotatable=0;labelPosition=right;points=[];portConstraint=eastwest;strokeColor=inherit;" vertex="1" parent="5_OHL3jlzMaZgzvaST_B-199">
          <mxGeometry y="30" width="140" height="10" as="geometry" />
        </mxCell>
        <mxCell id="5_OHL3jlzMaZgzvaST_B-201" value="+matches()" style="text;strokeColor=none;fillColor=none;align=left;verticalAlign=middle;spacingLeft=4;spacingRight=4;overflow=hidden;points=[[0,0.5],[1,0.5]];portConstraint=eastwest;rotatable=0;whiteSpace=wrap;html=1;" vertex="1" parent="5_OHL3jlzMaZgzvaST_B-199">
          <mxGeometry y="40" width="140" height="30" as="geometry" />
        </mxCell>
        <mxCell id="5_OHL3jlzMaZgzvaST_B-205" value="+apply()" style="text;strokeColor=none;fillColor=none;align=left;verticalAlign=middle;spacingLeft=4;spacingRight=4;overflow=hidden;points=[[0,0.5],[1,0.5]];portConstraint=eastwest;rotatable=0;whiteSpace=wrap;html=1;" vertex="1" parent="5_OHL3jlzMaZgzvaST_B-199">
          <mxGeometry y="70" width="140" height="30" as="geometry" />
        </mxCell>
        <mxCell id="5_OHL3jlzMaZgzvaST_B-206" value="AccountHistoryReportUseCase" style="swimlane;fontStyle=0;childLayout=stackLayout;horizontal=1;startSize=30;horizontalStack=0;resizeParent=1;resizeParentMax=0;resizeLast=0;collapsible=1;marginBottom=0;whiteSpace=wrap;html=1;" vertex="1" parent="5_OHL3jlzMaZgzvaST_B-1">
          <mxGeometry x="300" y="260" width="180" height="70" as="geometry" />
        </mxCell>
        <mxCell id="5_OHL3jlzMaZgzvaST_B-207" value="" style="line;strokeWidth=1;fillColor=none;align=left;verticalAlign=middle;spacingTop=-1;spacingLeft=3;spacingRight=3;rotatable=0;labelPosition=right;points=[];portConstraint=eastwest;strokeColor=inherit;" vertex="1" parent="5_OHL3jlzMaZgzvaST_B-206">
          <mxGeometry y="30" width="180" height="10" as="geometry" />
        </mxCell>
        <mxCell id="5_OHL3jlzMaZgzvaST_B-208" value="+execute()" style="text;strokeColor=none;fillColor=none;align=left;verticalAlign=middle;spacingLeft=4;spacingRight=4;overflow=hidden;points=[[0,0.5],[1,0.5]];portConstraint=eastwest;rotatable=0;whiteSpace=wrap;html=1;" vertex="1" parent="5_OHL3jlzMaZgzvaST_B-206">
          <mxGeometry y="40" width="180" height="30" as="geometry" />
        </mxCell>
        <mxCell id="5_OHL3jlzMaZgzvaST_B-210" value="CompanyWithdrawRule" style="swimlane;fontStyle=0;childLayout=stackLayout;horizontal=1;startSize=30;horizontalStack=0;resizeParent=1;resizeParentMax=0;resizeLast=0;collapsible=1;marginBottom=0;whiteSpace=wrap;html=1;" vertex="1" parent="5_OHL3jlzMaZgzvaST_B-1">
          <mxGeometry x="90" y="150" width="140" height="100" as="geometry" />
        </mxCell>
        <mxCell id="5_OHL3jlzMaZgzvaST_B-211" value="" style="line;strokeWidth=1;fillColor=none;align=left;verticalAlign=middle;spacingTop=-1;spacingLeft=3;spacingRight=3;rotatable=0;labelPosition=right;points=[];portConstraint=eastwest;strokeColor=inherit;" vertex="1" parent="5_OHL3jlzMaZgzvaST_B-210">
          <mxGeometry y="30" width="140" height="10" as="geometry" />
        </mxCell>
        <mxCell id="5_OHL3jlzMaZgzvaST_B-212" value="+matches()" style="text;strokeColor=none;fillColor=none;align=left;verticalAlign=middle;spacingLeft=4;spacingRight=4;overflow=hidden;points=[[0,0.5],[1,0.5]];portConstraint=eastwest;rotatable=0;whiteSpace=wrap;html=1;" vertex="1" parent="5_OHL3jlzMaZgzvaST_B-210">
          <mxGeometry y="40" width="140" height="30" as="geometry" />
        </mxCell>
        <mxCell id="5_OHL3jlzMaZgzvaST_B-213" value="+apply()" style="text;strokeColor=none;fillColor=none;align=left;verticalAlign=middle;spacingLeft=4;spacingRight=4;overflow=hidden;points=[[0,0.5],[1,0.5]];portConstraint=eastwest;rotatable=0;whiteSpace=wrap;html=1;" vertex="1" parent="5_OHL3jlzMaZgzvaST_B-210">
          <mxGeometry y="70" width="140" height="30" as="geometry" />
        </mxCell>
        <mxCell id="5_OHL3jlzMaZgzvaST_B-214" value="PersonalDepositRule" style="swimlane;fontStyle=0;childLayout=stackLayout;horizontal=1;startSize=30;horizontalStack=0;resizeParent=1;resizeParentMax=0;resizeLast=0;collapsible=1;marginBottom=0;whiteSpace=wrap;html=1;" vertex="1" parent="5_OHL3jlzMaZgzvaST_B-1">
          <mxGeometry x="90" y="260" width="140" height="100" as="geometry" />
        </mxCell>
        <mxCell id="5_OHL3jlzMaZgzvaST_B-215" value="" style="line;strokeWidth=1;fillColor=none;align=left;verticalAlign=middle;spacingTop=-1;spacingLeft=3;spacingRight=3;rotatable=0;labelPosition=right;points=[];portConstraint=eastwest;strokeColor=inherit;" vertex="1" parent="5_OHL3jlzMaZgzvaST_B-214">
          <mxGeometry y="30" width="140" height="10" as="geometry" />
        </mxCell>
        <mxCell id="5_OHL3jlzMaZgzvaST_B-216" value="+matches()" style="text;strokeColor=none;fillColor=none;align=left;verticalAlign=middle;spacingLeft=4;spacingRight=4;overflow=hidden;points=[[0,0.5],[1,0.5]];portConstraint=eastwest;rotatable=0;whiteSpace=wrap;html=1;" vertex="1" parent="5_OHL3jlzMaZgzvaST_B-214">
          <mxGeometry y="40" width="140" height="30" as="geometry" />
        </mxCell>
        <mxCell id="5_OHL3jlzMaZgzvaST_B-217" value="+apply()" style="text;strokeColor=none;fillColor=none;align=left;verticalAlign=middle;spacingLeft=4;spacingRight=4;overflow=hidden;points=[[0,0.5],[1,0.5]];portConstraint=eastwest;rotatable=0;whiteSpace=wrap;html=1;" vertex="1" parent="5_OHL3jlzMaZgzvaST_B-214">
          <mxGeometry y="70" width="140" height="30" as="geometry" />
        </mxCell>
        <mxCell id="5_OHL3jlzMaZgzvaST_B-218" value="PersonalWithdrawtRule" style="swimlane;fontStyle=0;childLayout=stackLayout;horizontal=1;startSize=30;horizontalStack=0;resizeParent=1;resizeParentMax=0;resizeLast=0;collapsible=1;marginBottom=0;whiteSpace=wrap;html=1;" vertex="1" parent="5_OHL3jlzMaZgzvaST_B-1">
          <mxGeometry x="90" y="370" width="140" height="100" as="geometry" />
        </mxCell>
        <mxCell id="5_OHL3jlzMaZgzvaST_B-219" value="" style="line;strokeWidth=1;fillColor=none;align=left;verticalAlign=middle;spacingTop=-1;spacingLeft=3;spacingRight=3;rotatable=0;labelPosition=right;points=[];portConstraint=eastwest;strokeColor=inherit;" vertex="1" parent="5_OHL3jlzMaZgzvaST_B-218">
          <mxGeometry y="30" width="140" height="10" as="geometry" />
        </mxCell>
        <mxCell id="5_OHL3jlzMaZgzvaST_B-220" value="+matches()" style="text;strokeColor=none;fillColor=none;align=left;verticalAlign=middle;spacingLeft=4;spacingRight=4;overflow=hidden;points=[[0,0.5],[1,0.5]];portConstraint=eastwest;rotatable=0;whiteSpace=wrap;html=1;" vertex="1" parent="5_OHL3jlzMaZgzvaST_B-218">
          <mxGeometry y="40" width="140" height="30" as="geometry" />
        </mxCell>
        <mxCell id="5_OHL3jlzMaZgzvaST_B-221" value="+apply()" style="text;strokeColor=none;fillColor=none;align=left;verticalAlign=middle;spacingLeft=4;spacingRight=4;overflow=hidden;points=[[0,0.5],[1,0.5]];portConstraint=eastwest;rotatable=0;whiteSpace=wrap;html=1;" vertex="1" parent="5_OHL3jlzMaZgzvaST_B-218">
          <mxGeometry y="70" width="140" height="30" as="geometry" />
        </mxCell>
        <mxCell id="5_OHL3jlzMaZgzvaST_B-222" value="" style="endArrow=open;endFill=1;endSize=12;html=1;rounded=0;exitX=0.491;exitY=1.16;exitDx=0;exitDy=0;exitPerimeter=0;entryX=0.5;entryY=0;entryDx=0;entryDy=0;" edge="1" parent="5_OHL3jlzMaZgzvaST_B-1" source="5_OHL3jlzMaZgzvaST_B-208" target="5_OHL3jlzMaZgzvaST_B-188">
          <mxGeometry width="160" relative="1" as="geometry">
            <mxPoint x="170" y="390" as="sourcePoint" />
            <mxPoint x="330" y="390" as="targetPoint" />
            <Array as="points">
              <mxPoint x="390" y="440" />
              <mxPoint x="520" y="440" />
            </Array>
          </mxGeometry>
        </mxCell>
        <mxCell id="5_OHL3jlzMaZgzvaST_B-223" value="AddInterestUseCase" style="swimlane;fontStyle=0;childLayout=stackLayout;horizontal=1;startSize=30;horizontalStack=0;resizeParent=1;resizeParentMax=0;resizeLast=0;collapsible=1;marginBottom=0;whiteSpace=wrap;html=1;" vertex="1" parent="5_OHL3jlzMaZgzvaST_B-1">
          <mxGeometry x="90" y="498" width="180" height="70" as="geometry" />
        </mxCell>
        <mxCell id="5_OHL3jlzMaZgzvaST_B-224" value="" style="line;strokeWidth=1;fillColor=none;align=left;verticalAlign=middle;spacingTop=-1;spacingLeft=3;spacingRight=3;rotatable=0;labelPosition=right;points=[];portConstraint=eastwest;strokeColor=inherit;" vertex="1" parent="5_OHL3jlzMaZgzvaST_B-223">
          <mxGeometry y="30" width="180" height="10" as="geometry" />
        </mxCell>
        <mxCell id="5_OHL3jlzMaZgzvaST_B-225" value="+execute()" style="text;strokeColor=none;fillColor=none;align=left;verticalAlign=middle;spacingLeft=4;spacingRight=4;overflow=hidden;points=[[0,0.5],[1,0.5]];portConstraint=eastwest;rotatable=0;whiteSpace=wrap;html=1;" vertex="1" parent="5_OHL3jlzMaZgzvaST_B-223">
          <mxGeometry y="40" width="180" height="30" as="geometry" />
        </mxCell>
        <mxCell id="5_OHL3jlzMaZgzvaST_B-226" value="CreateAccountUseCase" style="swimlane;fontStyle=0;childLayout=stackLayout;horizontal=1;startSize=30;horizontalStack=0;resizeParent=1;resizeParentMax=0;resizeLast=0;collapsible=1;marginBottom=0;whiteSpace=wrap;html=1;" vertex="1" parent="5_OHL3jlzMaZgzvaST_B-1">
          <mxGeometry x="90" y="580" width="180" height="70" as="geometry" />
        </mxCell>
        <mxCell id="5_OHL3jlzMaZgzvaST_B-227" value="" style="line;strokeWidth=1;fillColor=none;align=left;verticalAlign=middle;spacingTop=-1;spacingLeft=3;spacingRight=3;rotatable=0;labelPosition=right;points=[];portConstraint=eastwest;strokeColor=inherit;" vertex="1" parent="5_OHL3jlzMaZgzvaST_B-226">
          <mxGeometry y="30" width="180" height="10" as="geometry" />
        </mxCell>
        <mxCell id="5_OHL3jlzMaZgzvaST_B-228" value="+execute()" style="text;strokeColor=none;fillColor=none;align=left;verticalAlign=middle;spacingLeft=4;spacingRight=4;overflow=hidden;points=[[0,0.5],[1,0.5]];portConstraint=eastwest;rotatable=0;whiteSpace=wrap;html=1;" vertex="1" parent="5_OHL3jlzMaZgzvaST_B-226">
          <mxGeometry y="40" width="180" height="30" as="geometry" />
        </mxCell>
        <mxCell id="5_OHL3jlzMaZgzvaST_B-229" value="DepositAccountUseCase" style="swimlane;fontStyle=0;childLayout=stackLayout;horizontal=1;startSize=30;horizontalStack=0;resizeParent=1;resizeParentMax=0;resizeLast=0;collapsible=1;marginBottom=0;whiteSpace=wrap;html=1;" vertex="1" parent="5_OHL3jlzMaZgzvaST_B-1">
          <mxGeometry x="90" y="660" width="180" height="70" as="geometry" />
        </mxCell>
        <mxCell id="5_OHL3jlzMaZgzvaST_B-230" value="" style="line;strokeWidth=1;fillColor=none;align=left;verticalAlign=middle;spacingTop=-1;spacingLeft=3;spacingRight=3;rotatable=0;labelPosition=right;points=[];portConstraint=eastwest;strokeColor=inherit;" vertex="1" parent="5_OHL3jlzMaZgzvaST_B-229">
          <mxGeometry y="30" width="180" height="10" as="geometry" />
        </mxCell>
        <mxCell id="5_OHL3jlzMaZgzvaST_B-231" value="+execute()" style="text;strokeColor=none;fillColor=none;align=left;verticalAlign=middle;spacingLeft=4;spacingRight=4;overflow=hidden;points=[[0,0.5],[1,0.5]];portConstraint=eastwest;rotatable=0;whiteSpace=wrap;html=1;" vertex="1" parent="5_OHL3jlzMaZgzvaST_B-229">
          <mxGeometry y="40" width="180" height="30" as="geometry" />
        </mxCell>
        <mxCell id="5_OHL3jlzMaZgzvaST_B-232" value="WithdrawAccountUseCase" style="swimlane;fontStyle=0;childLayout=stackLayout;horizontal=1;startSize=30;horizontalStack=0;resizeParent=1;resizeParentMax=0;resizeLast=0;collapsible=1;marginBottom=0;whiteSpace=wrap;html=1;" vertex="1" parent="5_OHL3jlzMaZgzvaST_B-1">
          <mxGeometry x="90" y="740" width="180" height="70" as="geometry" />
        </mxCell>
        <mxCell id="5_OHL3jlzMaZgzvaST_B-233" value="" style="line;strokeWidth=1;fillColor=none;align=left;verticalAlign=middle;spacingTop=-1;spacingLeft=3;spacingRight=3;rotatable=0;labelPosition=right;points=[];portConstraint=eastwest;strokeColor=inherit;" vertex="1" parent="5_OHL3jlzMaZgzvaST_B-232">
          <mxGeometry y="30" width="180" height="10" as="geometry" />
        </mxCell>
        <mxCell id="5_OHL3jlzMaZgzvaST_B-234" value="+execute()" style="text;strokeColor=none;fillColor=none;align=left;verticalAlign=middle;spacingLeft=4;spacingRight=4;overflow=hidden;points=[[0,0.5],[1,0.5]];portConstraint=eastwest;rotatable=0;whiteSpace=wrap;html=1;" vertex="1" parent="5_OHL3jlzMaZgzvaST_B-232">
          <mxGeometry y="40" width="180" height="30" as="geometry" />
        </mxCell>
        <mxCell id="5_OHL3jlzMaZgzvaST_B-235" value="" style="endArrow=open;endFill=1;endSize=12;html=1;rounded=0;exitX=1;exitY=0.5;exitDx=0;exitDy=0;entryX=0;entryY=0.25;entryDx=0;entryDy=0;" edge="1" parent="5_OHL3jlzMaZgzvaST_B-1" source="5_OHL3jlzMaZgzvaST_B-225" target="5_OHL3jlzMaZgzvaST_B-188">
          <mxGeometry width="160" relative="1" as="geometry">
            <mxPoint x="398" y="345" as="sourcePoint" />
            <mxPoint x="530" y="520" as="targetPoint" />
            <Array as="points" />
          </mxGeometry>
        </mxCell>
        <mxCell id="5_OHL3jlzMaZgzvaST_B-2" value="Credit Card System" style="swimlane;whiteSpace=wrap;html=1;fillColor=#B3FF66;strokeColor=#33FF33;movable=0;resizable=0;rotatable=0;deletable=0;editable=0;locked=1;connectable=0;" vertex="1" parent="WIyWlLk6GJQsqaUBKTNV-1">
          <mxGeometry x="-1160" y="1200" width="890" height="670" as="geometry" />
        </mxCell>
        <mxCell id="5_OHL3jlzMaZgzvaST_B-247" value="CreditAccount" style="swimlane;fontStyle=0;childLayout=stackLayout;horizontal=1;startSize=30;horizontalStack=0;resizeParent=1;resizeParentMax=0;resizeLast=0;collapsible=1;marginBottom=0;whiteSpace=wrap;html=1;" vertex="1" parent="5_OHL3jlzMaZgzvaST_B-2">
          <mxGeometry x="630" y="40" width="217" height="140" as="geometry" />
        </mxCell>
        <mxCell id="5_OHL3jlzMaZgzvaST_B-249" value="+exprDate" style="text;strokeColor=none;fillColor=none;align=left;verticalAlign=middle;spacingLeft=4;spacingRight=4;overflow=hidden;points=[[0,0.5],[1,0.5]];portConstraint=eastwest;rotatable=0;whiteSpace=wrap;html=1;" vertex="1" parent="5_OHL3jlzMaZgzvaST_B-247">
          <mxGeometry y="30" width="217" height="30" as="geometry" />
        </mxCell>
        <mxCell id="5_OHL3jlzMaZgzvaST_B-250" value="+accountType" style="text;strokeColor=none;fillColor=none;align=left;verticalAlign=middle;spacingLeft=4;spacingRight=4;overflow=hidden;points=[[0,0.5],[1,0.5]];portConstraint=eastwest;rotatable=0;whiteSpace=wrap;html=1;" vertex="1" parent="5_OHL3jlzMaZgzvaST_B-247">
          <mxGeometry y="60" width="217" height="30" as="geometry" />
        </mxCell>
        <mxCell id="5_OHL3jlzMaZgzvaST_B-251" value="+mimimumPaymentCalculatorStrategy" style="text;strokeColor=none;fillColor=none;align=left;verticalAlign=middle;spacingLeft=4;spacingRight=4;overflow=hidden;points=[[0,0.5],[1,0.5]];portConstraint=eastwest;rotatable=0;whiteSpace=wrap;html=1;" vertex="1" parent="5_OHL3jlzMaZgzvaST_B-247">
          <mxGeometry y="90" width="217" height="30" as="geometry" />
        </mxCell>
        <mxCell id="5_OHL3jlzMaZgzvaST_B-248" value="" style="line;strokeWidth=1;fillColor=none;align=left;verticalAlign=middle;spacingTop=-1;spacingLeft=3;spacingRight=3;rotatable=0;labelPosition=right;points=[];portConstraint=eastwest;strokeColor=inherit;" vertex="1" parent="5_OHL3jlzMaZgzvaST_B-247">
          <mxGeometry y="120" width="217" height="20" as="geometry" />
        </mxCell>
        <mxCell id="5_OHL3jlzMaZgzvaST_B-252" value="CreditAccountReport" style="swimlane;fontStyle=0;childLayout=stackLayout;horizontal=1;startSize=30;horizontalStack=0;resizeParent=1;resizeParentMax=0;resizeLast=0;collapsible=1;marginBottom=0;whiteSpace=wrap;html=1;" vertex="1" parent="5_OHL3jlzMaZgzvaST_B-2">
          <mxGeometry x="40" y="41" width="140" height="188" as="geometry" />
        </mxCell>
        <mxCell id="5_OHL3jlzMaZgzvaST_B-253" value="+previousBalance" style="text;strokeColor=none;fillColor=none;align=left;verticalAlign=middle;spacingLeft=4;spacingRight=4;overflow=hidden;points=[[0,0.5],[1,0.5]];portConstraint=eastwest;rotatable=0;whiteSpace=wrap;html=1;" vertex="1" parent="5_OHL3jlzMaZgzvaST_B-252">
          <mxGeometry y="30" width="140" height="30" as="geometry" />
        </mxCell>
        <mxCell id="5_OHL3jlzMaZgzvaST_B-254" value="+totalCharges" style="text;strokeColor=none;fillColor=none;align=left;verticalAlign=middle;spacingLeft=4;spacingRight=4;overflow=hidden;points=[[0,0.5],[1,0.5]];portConstraint=eastwest;rotatable=0;whiteSpace=wrap;html=1;" vertex="1" parent="5_OHL3jlzMaZgzvaST_B-252">
          <mxGeometry y="60" width="140" height="30" as="geometry" />
        </mxCell>
        <mxCell id="5_OHL3jlzMaZgzvaST_B-255" value="+totalCredits" style="text;strokeColor=none;fillColor=none;align=left;verticalAlign=middle;spacingLeft=4;spacingRight=4;overflow=hidden;points=[[0,0.5],[1,0.5]];portConstraint=eastwest;rotatable=0;whiteSpace=wrap;html=1;" vertex="1" parent="5_OHL3jlzMaZgzvaST_B-252">
          <mxGeometry y="90" width="140" height="30" as="geometry" />
        </mxCell>
        <mxCell id="5_OHL3jlzMaZgzvaST_B-258" value="+newBalance" style="text;strokeColor=none;fillColor=none;align=left;verticalAlign=middle;spacingLeft=4;spacingRight=4;overflow=hidden;points=[[0,0.5],[1,0.5]];portConstraint=eastwest;rotatable=0;whiteSpace=wrap;html=1;" vertex="1" parent="5_OHL3jlzMaZgzvaST_B-252">
          <mxGeometry y="120" width="140" height="30" as="geometry" />
        </mxCell>
        <mxCell id="5_OHL3jlzMaZgzvaST_B-256" value="+totalDue" style="text;strokeColor=none;fillColor=none;align=left;verticalAlign=middle;spacingLeft=4;spacingRight=4;overflow=hidden;points=[[0,0.5],[1,0.5]];portConstraint=eastwest;rotatable=0;whiteSpace=wrap;html=1;" vertex="1" parent="5_OHL3jlzMaZgzvaST_B-252">
          <mxGeometry y="150" width="140" height="30" as="geometry" />
        </mxCell>
        <mxCell id="5_OHL3jlzMaZgzvaST_B-257" value="" style="line;strokeWidth=1;fillColor=none;align=left;verticalAlign=middle;spacingTop=-1;spacingLeft=3;spacingRight=3;rotatable=0;labelPosition=right;points=[];portConstraint=eastwest;strokeColor=inherit;" vertex="1" parent="5_OHL3jlzMaZgzvaST_B-252">
          <mxGeometry y="180" width="140" height="8" as="geometry" />
        </mxCell>
        <mxCell id="5_OHL3jlzMaZgzvaST_B-259" value="CreditCardService" style="swimlane;fontStyle=0;childLayout=stackLayout;horizontal=1;startSize=30;horizontalStack=0;resizeParent=1;resizeParentMax=0;resizeLast=0;collapsible=1;marginBottom=0;whiteSpace=wrap;html=1;" vertex="1" parent="5_OHL3jlzMaZgzvaST_B-2">
          <mxGeometry x="450" y="41" width="150" height="128" as="geometry" />
        </mxCell>
        <mxCell id="5_OHL3jlzMaZgzvaST_B-260" value="" style="line;strokeWidth=1;fillColor=none;align=left;verticalAlign=middle;spacingTop=-1;spacingLeft=3;spacingRight=3;rotatable=0;labelPosition=right;points=[];portConstraint=eastwest;strokeColor=inherit;" vertex="1" parent="5_OHL3jlzMaZgzvaST_B-259">
          <mxGeometry y="30" width="150" height="8" as="geometry" />
        </mxCell>
        <mxCell id="5_OHL3jlzMaZgzvaST_B-261" value="+createCreditAccount()" style="text;strokeColor=none;fillColor=none;align=left;verticalAlign=middle;spacingLeft=4;spacingRight=4;overflow=hidden;points=[[0,0.5],[1,0.5]];portConstraint=eastwest;rotatable=0;whiteSpace=wrap;html=1;" vertex="1" parent="5_OHL3jlzMaZgzvaST_B-259">
          <mxGeometry y="38" width="150" height="30" as="geometry" />
        </mxCell>
        <mxCell id="5_OHL3jlzMaZgzvaST_B-262" value="+loadAccount()" style="text;strokeColor=none;fillColor=none;align=left;verticalAlign=middle;spacingLeft=4;spacingRight=4;overflow=hidden;points=[[0,0.5],[1,0.5]];portConstraint=eastwest;rotatable=0;whiteSpace=wrap;html=1;" vertex="1" parent="5_OHL3jlzMaZgzvaST_B-259">
          <mxGeometry y="68" width="150" height="30" as="geometry" />
        </mxCell>
        <mxCell id="5_OHL3jlzMaZgzvaST_B-263" value="+generateMonthlyReport()" style="text;strokeColor=none;fillColor=none;align=left;verticalAlign=middle;spacingLeft=4;spacingRight=4;overflow=hidden;points=[[0,0.5],[1,0.5]];portConstraint=eastwest;rotatable=0;whiteSpace=wrap;html=1;" vertex="1" parent="5_OHL3jlzMaZgzvaST_B-259">
          <mxGeometry y="98" width="150" height="30" as="geometry" />
        </mxCell>
        <mxCell id="5_OHL3jlzMaZgzvaST_B-266" value="" style="endArrow=block;endSize=16;endFill=0;html=1;rounded=0;fontFamily=Helvetica;fontSize=12;fontColor=default;fontStyle=1;resizable=1;" edge="1" parent="5_OHL3jlzMaZgzvaST_B-2">
          <mxGeometry width="160" relative="1" as="geometry">
            <mxPoint x="847" y="120" as="sourcePoint" />
            <mxPoint x="1080" y="-1000" as="targetPoint" />
            <Array as="points">
              <mxPoint x="1000" y="120" />
              <mxPoint x="1000" y="-1000" />
            </Array>
          </mxGeometry>
        </mxCell>
        <mxCell id="5_OHL3jlzMaZgzvaST_B-274" value="SilverMonthlyInterestCalculatorStrategy" style="swimlane;fontStyle=0;childLayout=stackLayout;horizontal=1;startSize=30;horizontalStack=0;resizeParent=1;resizeParentMax=0;resizeLast=0;collapsible=1;marginBottom=0;whiteSpace=wrap;html=1;" vertex="1" parent="5_OHL3jlzMaZgzvaST_B-2">
          <mxGeometry x="620" y="400" width="227" height="68" as="geometry" />
        </mxCell>
        <mxCell id="5_OHL3jlzMaZgzvaST_B-275" value="" style="line;strokeWidth=1;fillColor=none;align=left;verticalAlign=middle;spacingTop=-1;spacingLeft=3;spacingRight=3;rotatable=0;labelPosition=right;points=[];portConstraint=eastwest;strokeColor=inherit;" vertex="1" parent="5_OHL3jlzMaZgzvaST_B-274">
          <mxGeometry y="30" width="227" height="8" as="geometry" />
        </mxCell>
        <mxCell id="5_OHL3jlzMaZgzvaST_B-276" value="+calculateInterest()" style="text;strokeColor=none;fillColor=none;align=left;verticalAlign=middle;spacingLeft=4;spacingRight=4;overflow=hidden;points=[[0,0.5],[1,0.5]];portConstraint=eastwest;rotatable=0;whiteSpace=wrap;html=1;" vertex="1" parent="5_OHL3jlzMaZgzvaST_B-274">
          <mxGeometry y="38" width="227" height="30" as="geometry" />
        </mxCell>
        <mxCell id="5_OHL3jlzMaZgzvaST_B-271" value="GoldMonthlyInterestCalculatorStrategy" style="swimlane;fontStyle=0;childLayout=stackLayout;horizontal=1;startSize=30;horizontalStack=0;resizeParent=1;resizeParentMax=0;resizeLast=0;collapsible=1;marginBottom=0;whiteSpace=wrap;html=1;" vertex="1" parent="5_OHL3jlzMaZgzvaST_B-2">
          <mxGeometry x="620" y="310" width="227" height="68" as="geometry" />
        </mxCell>
        <mxCell id="5_OHL3jlzMaZgzvaST_B-272" value="" style="line;strokeWidth=1;fillColor=none;align=left;verticalAlign=middle;spacingTop=-1;spacingLeft=3;spacingRight=3;rotatable=0;labelPosition=right;points=[];portConstraint=eastwest;strokeColor=inherit;" vertex="1" parent="5_OHL3jlzMaZgzvaST_B-271">
          <mxGeometry y="30" width="227" height="8" as="geometry" />
        </mxCell>
        <mxCell id="5_OHL3jlzMaZgzvaST_B-273" value="+calculateInterest()" style="text;strokeColor=none;fillColor=none;align=left;verticalAlign=middle;spacingLeft=4;spacingRight=4;overflow=hidden;points=[[0,0.5],[1,0.5]];portConstraint=eastwest;rotatable=0;whiteSpace=wrap;html=1;" vertex="1" parent="5_OHL3jlzMaZgzvaST_B-271">
          <mxGeometry y="38" width="227" height="30" as="geometry" />
        </mxCell>
        <mxCell id="5_OHL3jlzMaZgzvaST_B-277" value="SilverMinimumPaymentCalculatorStrategy" style="swimlane;fontStyle=0;childLayout=stackLayout;horizontal=1;startSize=30;horizontalStack=0;resizeParent=1;resizeParentMax=0;resizeLast=0;collapsible=1;marginBottom=0;whiteSpace=wrap;html=1;" vertex="1" parent="5_OHL3jlzMaZgzvaST_B-2">
          <mxGeometry x="80" y="510" width="227" height="68" as="geometry" />
        </mxCell>
        <mxCell id="5_OHL3jlzMaZgzvaST_B-278" value="" style="line;strokeWidth=1;fillColor=none;align=left;verticalAlign=middle;spacingTop=-1;spacingLeft=3;spacingRight=3;rotatable=0;labelPosition=right;points=[];portConstraint=eastwest;strokeColor=inherit;" vertex="1" parent="5_OHL3jlzMaZgzvaST_B-277">
          <mxGeometry y="30" width="227" height="8" as="geometry" />
        </mxCell>
        <mxCell id="5_OHL3jlzMaZgzvaST_B-279" value="+calculateMinimumPayment()" style="text;strokeColor=none;fillColor=none;align=left;verticalAlign=middle;spacingLeft=4;spacingRight=4;overflow=hidden;points=[[0,0.5],[1,0.5]];portConstraint=eastwest;rotatable=0;whiteSpace=wrap;html=1;" vertex="1" parent="5_OHL3jlzMaZgzvaST_B-277">
          <mxGeometry y="38" width="227" height="30" as="geometry" />
        </mxCell>
        <mxCell id="5_OHL3jlzMaZgzvaST_B-280" value="GoldMinimumPaymentCalculatorStrategy" style="swimlane;fontStyle=0;childLayout=stackLayout;horizontal=1;startSize=30;horizontalStack=0;resizeParent=1;resizeParentMax=0;resizeLast=0;collapsible=1;marginBottom=0;whiteSpace=wrap;html=1;" vertex="1" parent="5_OHL3jlzMaZgzvaST_B-2">
          <mxGeometry x="350" y="510" width="227" height="68" as="geometry" />
        </mxCell>
        <mxCell id="5_OHL3jlzMaZgzvaST_B-281" value="" style="line;strokeWidth=1;fillColor=none;align=left;verticalAlign=middle;spacingTop=-1;spacingLeft=3;spacingRight=3;rotatable=0;labelPosition=right;points=[];portConstraint=eastwest;strokeColor=inherit;" vertex="1" parent="5_OHL3jlzMaZgzvaST_B-280">
          <mxGeometry y="30" width="227" height="8" as="geometry" />
        </mxCell>
        <mxCell id="5_OHL3jlzMaZgzvaST_B-282" value="+calculateMinimumPayment()" style="text;strokeColor=none;fillColor=none;align=left;verticalAlign=middle;spacingLeft=4;spacingRight=4;overflow=hidden;points=[[0,0.5],[1,0.5]];portConstraint=eastwest;rotatable=0;whiteSpace=wrap;html=1;" vertex="1" parent="5_OHL3jlzMaZgzvaST_B-280">
          <mxGeometry y="38" width="227" height="30" as="geometry" />
        </mxCell>
        <mxCell id="5_OHL3jlzMaZgzvaST_B-283" value="BronzeMinimumPaymentCalculatorStrategy" style="swimlane;fontStyle=0;childLayout=stackLayout;horizontal=1;startSize=30;horizontalStack=0;resizeParent=1;resizeParentMax=0;resizeLast=0;collapsible=1;marginBottom=0;whiteSpace=wrap;html=1;" vertex="1" parent="5_OHL3jlzMaZgzvaST_B-2">
          <mxGeometry x="620" y="510" width="227" height="68" as="geometry" />
        </mxCell>
        <mxCell id="5_OHL3jlzMaZgzvaST_B-284" value="" style="line;strokeWidth=1;fillColor=none;align=left;verticalAlign=middle;spacingTop=-1;spacingLeft=3;spacingRight=3;rotatable=0;labelPosition=right;points=[];portConstraint=eastwest;strokeColor=inherit;" vertex="1" parent="5_OHL3jlzMaZgzvaST_B-283">
          <mxGeometry y="30" width="227" height="8" as="geometry" />
        </mxCell>
        <mxCell id="5_OHL3jlzMaZgzvaST_B-285" value="+calculateMinimumPayment()" style="text;strokeColor=none;fillColor=none;align=left;verticalAlign=middle;spacingLeft=4;spacingRight=4;overflow=hidden;points=[[0,0.5],[1,0.5]];portConstraint=eastwest;rotatable=0;whiteSpace=wrap;html=1;" vertex="1" parent="5_OHL3jlzMaZgzvaST_B-283">
          <mxGeometry y="38" width="227" height="30" as="geometry" />
        </mxCell>
        <mxCell id="5_OHL3jlzMaZgzvaST_B-286" value="" style="endArrow=block;dashed=1;endFill=0;endSize=12;html=1;rounded=0;fontFamily=Helvetica;fontSize=12;fontColor=default;fontStyle=1;resizable=1;" edge="1" parent="5_OHL3jlzMaZgzvaST_B-2">
          <mxGeometry width="160" relative="1" as="geometry">
            <mxPoint x="847" y="260" as="sourcePoint" />
            <mxPoint x="1500" y="-690" as="targetPoint" />
            <Array as="points">
              <mxPoint x="970" y="260" />
              <mxPoint x="970" y="-690" />
            </Array>
          </mxGeometry>
        </mxCell>
        <mxCell id="5_OHL3jlzMaZgzvaST_B-292" value="&lt;div&gt;CreditCardFactory&lt;/div&gt;" style="swimlane;fontStyle=0;childLayout=stackLayout;horizontal=1;startSize=30;horizontalStack=0;resizeParent=1;resizeParentMax=0;resizeLast=0;collapsible=1;marginBottom=0;whiteSpace=wrap;html=1;" vertex="1" parent="5_OHL3jlzMaZgzvaST_B-2">
          <mxGeometry x="230" y="40" width="140" height="68" as="geometry" />
        </mxCell>
        <mxCell id="5_OHL3jlzMaZgzvaST_B-293" value="" style="line;strokeWidth=1;fillColor=none;align=left;verticalAlign=middle;spacingTop=-1;spacingLeft=3;spacingRight=3;rotatable=0;labelPosition=right;points=[];portConstraint=eastwest;strokeColor=inherit;" vertex="1" parent="5_OHL3jlzMaZgzvaST_B-292">
          <mxGeometry y="30" width="140" height="8" as="geometry" />
        </mxCell>
        <mxCell id="5_OHL3jlzMaZgzvaST_B-294" value="+createCreditAccount()" style="text;strokeColor=none;fillColor=none;align=left;verticalAlign=middle;spacingLeft=4;spacingRight=4;overflow=hidden;points=[[0,0.5],[1,0.5]];portConstraint=eastwest;rotatable=0;whiteSpace=wrap;html=1;" vertex="1" parent="5_OHL3jlzMaZgzvaST_B-292">
          <mxGeometry y="38" width="140" height="30" as="geometry" />
        </mxCell>
        <mxCell id="5_OHL3jlzMaZgzvaST_B-297" value="CreditAccountReportUseCase" style="swimlane;fontStyle=0;childLayout=stackLayout;horizontal=1;startSize=30;horizontalStack=0;resizeParent=1;resizeParentMax=0;resizeLast=0;collapsible=1;marginBottom=0;whiteSpace=wrap;html=1;" vertex="1" parent="5_OHL3jlzMaZgzvaST_B-2">
          <mxGeometry x="230" y="229" width="180" height="70" as="geometry" />
        </mxCell>
        <mxCell id="5_OHL3jlzMaZgzvaST_B-298" value="" style="line;strokeWidth=1;fillColor=none;align=left;verticalAlign=middle;spacingTop=-1;spacingLeft=3;spacingRight=3;rotatable=0;labelPosition=right;points=[];portConstraint=eastwest;strokeColor=inherit;" vertex="1" parent="5_OHL3jlzMaZgzvaST_B-297">
          <mxGeometry y="30" width="180" height="10" as="geometry" />
        </mxCell>
        <mxCell id="5_OHL3jlzMaZgzvaST_B-299" value="+execute()" style="text;strokeColor=none;fillColor=none;align=left;verticalAlign=middle;spacingLeft=4;spacingRight=4;overflow=hidden;points=[[0,0.5],[1,0.5]];portConstraint=eastwest;rotatable=0;whiteSpace=wrap;html=1;" vertex="1" parent="5_OHL3jlzMaZgzvaST_B-297">
          <mxGeometry y="40" width="180" height="30" as="geometry" />
        </mxCell>
        <mxCell id="5_OHL3jlzMaZgzvaST_B-300" value="CreateCreditAccountUseCase" style="swimlane;fontStyle=0;childLayout=stackLayout;horizontal=1;startSize=30;horizontalStack=0;resizeParent=1;resizeParentMax=0;resizeLast=0;collapsible=1;marginBottom=0;whiteSpace=wrap;html=1;" vertex="1" parent="5_OHL3jlzMaZgzvaST_B-2">
          <mxGeometry x="230" y="350" width="180" height="70" as="geometry" />
        </mxCell>
        <mxCell id="5_OHL3jlzMaZgzvaST_B-301" value="" style="line;strokeWidth=1;fillColor=none;align=left;verticalAlign=middle;spacingTop=-1;spacingLeft=3;spacingRight=3;rotatable=0;labelPosition=right;points=[];portConstraint=eastwest;strokeColor=inherit;" vertex="1" parent="5_OHL3jlzMaZgzvaST_B-300">
          <mxGeometry y="30" width="180" height="10" as="geometry" />
        </mxCell>
        <mxCell id="5_OHL3jlzMaZgzvaST_B-302" value="+execute()" style="text;strokeColor=none;fillColor=none;align=left;verticalAlign=middle;spacingLeft=4;spacingRight=4;overflow=hidden;points=[[0,0.5],[1,0.5]];portConstraint=eastwest;rotatable=0;whiteSpace=wrap;html=1;" vertex="1" parent="5_OHL3jlzMaZgzvaST_B-300">
          <mxGeometry y="40" width="180" height="30" as="geometry" />
        </mxCell>
        <mxCell id="5_OHL3jlzMaZgzvaST_B-303" value="" style="endArrow=open;endFill=1;endSize=12;html=1;rounded=0;fontFamily=Helvetica;fontSize=12;fontColor=default;fontStyle=1;resizable=1;exitX=1;exitY=0.5;exitDx=0;exitDy=0;entryX=0.525;entryY=1.053;entryDx=0;entryDy=0;entryPerimeter=0;" edge="1" parent="5_OHL3jlzMaZgzvaST_B-2" source="5_OHL3jlzMaZgzvaST_B-299" target="5_OHL3jlzMaZgzvaST_B-263">
          <mxGeometry width="160" relative="1" as="geometry">
            <mxPoint x="350" y="290" as="sourcePoint" />
            <mxPoint x="510" y="290" as="targetPoint" />
            <Array as="points">
              <mxPoint x="529" y="284" />
            </Array>
          </mxGeometry>
        </mxCell>
        <mxCell id="5_OHL3jlzMaZgzvaST_B-304" value="" style="endArrow=open;endFill=1;endSize=12;html=1;rounded=0;fontFamily=Helvetica;fontSize=12;fontColor=default;fontStyle=1;resizable=1;exitX=1;exitY=0.5;exitDx=0;exitDy=0;" edge="1" parent="5_OHL3jlzMaZgzvaST_B-2">
          <mxGeometry width="160" relative="1" as="geometry">
            <mxPoint x="410" y="400" as="sourcePoint" />
            <mxPoint x="529" y="170" as="targetPoint" />
            <Array as="points">
              <mxPoint x="529" y="400" />
            </Array>
          </mxGeometry>
        </mxCell>
      </root>
    </mxGraphModel>
  </diagram>
</mxfile>
